<svg width="80" height="80" viewBox="0 0 105 90" fill="none" xmlns="http://www.w3.org/2000/svg"><mask id="mask0_58_2119" style="mask-type:alpha" maskUnits="userSpaceOnUse" x="0" y="0" width="105" height="90"><rect x="0.5" y="0.5" width="104" height="89" fill="#D9D9D9" stroke="black"/></mask><g mask="url(#mask0_58_2119)"><path opacity="0.3" d="M35 17.5L19 33V41L19.5 44L16.5 47.5L118 150.5L171.5 121L87 36.5H74L69 31.5L54 32L47 25.5L40.5 23.5L39 20.5L35 17.5Z" fill="url(#paint0_linear_58_2119)"/></g><path d="M42.6365 63.0477C44.4942 63.0477 46.0001 61.5392 46.0001 59.6784C46.0001 57.8176 44.4942 56.3091 42.6365 56.3091C40.7789 56.3091 39.2729 57.8176 39.2729 59.6784C39.2729 61.5392 40.7789 63.0477 42.6365 63.0477Z" stroke="#FCFCFC" stroke-width="3" stroke-miterlimit="10"/><path d="M53.3636 63.0477C55.2212 63.0477 56.7272 61.5392 56.7272 59.6784C56.7272 57.8176 55.2212 56.3091 53.3636 56.3091C51.5059 56.3091 50 57.8176 50 59.6784C50 61.5392 51.5059 63.0477 53.3636 63.0477Z" stroke="#FCFCFC" stroke-width="3" stroke-miterlimit="10"/><path d="M64.0906 63.0477C65.9483 63.0477 67.4542 61.5392 67.4542 59.6784C67.4542 57.8176 65.9483 56.3091 64.0906 56.3091C62.233 56.3091 60.7271 57.8176 60.7271 59.6784C60.7271 61.5392 62.233 63.0477 64.0906 63.0477Z" stroke="#FCFCFC" stroke-width="3" stroke-miterlimit="10"/><path d="M78.3636 63.0477C80.2212 63.0477 81.7272 61.5392 81.7272 59.6784C81.7272 57.8176 80.2212 56.3091 78.3636 56.3091C76.5059 56.3091 75 57.8176 75 59.6784C75 61.5392 76.5059 63.0477 78.3636 63.0477Z" stroke="#FCFCFC" stroke-width="3" stroke-miterlimit="10"/><path d="M36.1222 55.4425H30.5V32.6279H67.7224V51.4589" stroke="#FCFCFC" stroke-width="3" stroke-miterlimit="10" stroke-linecap="round"/><path d="M70 56H72" stroke="#FCFCFC" stroke-width="3" stroke-linecap="round" stroke-linejoin="round"/><path d="M87.7488 54H83.0053L79.3293 51.4439H73.77V36.624H83.3828C85.9324 36.624 88.0004 38.6956 88.0004 41.2496V58.3576H85" stroke="#FCFCFC" stroke-width="3" stroke-miterlimit="10"/><path d="M88 41.9999H79V45.7766C79 47.0044 80.0905 47.9999 81.4353 47.9999H87.9982" stroke="#FCFCFC" stroke-width="3" stroke-miterlimit="10"/><path d="M35 55L35 61" stroke="#FCFCFC" stroke-width="3" stroke-miterlimit="10"/><path d="M29.6165 52.4341H27V55.4429H29.6165" stroke="#FCFCFC" stroke-width="3" stroke-miterlimit="10" stroke-linecap="round"/><path d="M59.0933 32.6279V44.6752" stroke="#FCFCFC" stroke-width="3" stroke-linecap="round" stroke-linejoin="round"/><path d="M50.1729 32.5L43.9332 26.2603L41.4209 28.7749L45.146 32.5" fill="#FCFCFC"/><path d="M50.1729 32.5L43.9332 26.2603L41.4209 28.7749L45.146 32.5" stroke="#FCFCFC" stroke-width="3" stroke-miterlimit="10" stroke-linecap="round"/><path d="M40.6562 29.4661L44.7411 25.3742L41.4897 22.1172L37.4087 26.2071L40.6562 29.4661Z" fill="#FCFCFC" stroke="#FCFCFC" stroke-width="3" stroke-miterlimit="10" stroke-linecap="round"/><path d="M23.5 35.0112L35.3656 23.126L37.9231 25.6899L40.9819 22.6278L35.3656 17L19.0298 33.3637V42.6758H23.5V35.0112Z" fill="#FCFCFC" stroke="#FCFCFC" stroke-width="3" stroke-miterlimit="10"/><path d="M25 43H18V46H25V43Z" stroke="#FCFCFC" stroke-width="3" stroke-miterlimit="10"/><defs><linearGradient id="paint0_linear_58_2119" x1="27.1897" y1="25.7313" x2="68.507" y2="72.0717" gradientUnits="userSpaceOnUse"><stop offset="0.461225" stop-color="#669A3B"/><stop offset="1" stop-color="#669A3B" stop-opacity="0"/></linearGradient></defs></svg>