<svg width="80" height="80" viewBox="0 0 80 80" fill="none" xmlns="http://www.w3.org/2000/svg"><path d="M74 46.6543H6V49.1906H74V46.6543Z" fill="#FCFCFC"/><path d="M17.4107 34.9831C17.4107 39.1743 27.524 42.5711 39.9999 42.5711C52.4758 42.5711 62.5891 39.1743 62.5891 34.9831C62.5891 30.792 52.4758 27.3952 39.9999 27.3952C35.0942 27.3952 30.5597 27.9212 26.8544 28.8131L16.0577 17.79L12.5952 21.2112L21.7197 30.5307C19.0101 31.7814 17.4107 33.3213 17.4107 34.9866V34.9831ZM39.9999 32.2726C44.5795 32.2726 49.055 32.7813 52.5973 33.7011C54.2417 34.1296 55.4526 34.5825 56.313 34.9831C55.456 35.3838 54.2452 35.8367 52.5973 36.2652C49.055 37.185 44.583 37.6936 39.9999 37.6936C38.4352 37.6936 36.8844 37.6344 35.3787 37.5194L30.924 32.9729C33.7168 32.52 36.8324 32.2761 39.9999 32.2761V32.2726Z" fill="#FCFCFC"/><path d="M34.2825 11.7593L28.6655 13.6162L36.0692 26.1583L34.2825 11.7593Z" fill="#FCFCFC"/><path d="M42.9558 11L37.0439 11.0279L40.2288 25.2492L42.9558 11Z" fill="#FCFCFC"/><path d="M45.9571 11.8188L43.48 26.183L51.4318 14.066L45.9571 11.8188Z" fill="#FCFCFC"/><path d="M53.0449 55.1815H54.3806L54.5349 53.8547C54.5593 53.6443 54.7378 53.4883 54.9427 53.4883H60.6776C60.8824 53.4883 61.0609 53.6443 61.0854 53.8547L61.2397 55.1815H62.5753H72.5V66.6153H62.5892H61.1188L61.0895 68.0854C61.0847 68.3246 60.8944 68.5001 60.6776 68.5001H54.9427C54.7258 68.5001 54.5355 68.3246 54.5307 68.0854L54.5014 66.6153H53.031H7.5V55.1815H53.0449Z" stroke="#FCFCFC" stroke-width="3"/><path d="M54.5 54V67" stroke="#FCFCFC" stroke-width="3"/><path d="M61 54V67" stroke="#FCFCFC" stroke-width="3"/></svg>