<svg width="80" height="80" viewBox="0 0 105 90" fill="none" xmlns="http://www.w3.org/2000/svg"><mask id="mask0_58_1616" style="mask-type:alpha" maskUnits="userSpaceOnUse" x="0" y="0" width="105" height="90"><rect x="0.5" y="0.5" width="104" height="89" fill="#D9D9D9" stroke="black"/></mask><g mask="url(#mask0_58_1616)"><path opacity="0.3" d="M49 40L24.5 29L38 43L35.5 51.5L25.5 62L126 164L182.5 116.5L82 16L66 26.5L61 21.5L60.5 24.5L74 39L75.5 45L40.5 10.5L41 16.5L64 39.5L44 29.5H38.5L49 40Z" fill="url(#paint0_linear_58_1616)"/></g><path d="M23.7581 27.4672C23.7344 27.5235 23.712 27.585 23.6949 27.645C23.5642 28.1294 23.7132 28.6834 24.2325 28.9832L36.7963 36.2369C37.2203 36.4817 37.5318 36.8452 37.7241 37.2711C38.0391 37.9778 38.011 38.8538 37.5736 39.6114L25.0068 61.3777C25.5851 62.0002 26.2247 62.5925 26.9345 63.1467C27.6424 63.7041 28.4173 64.2214 29.2553 64.7052C30.33 65.3257 31.4009 65.8084 32.4591 66.1613C32.8124 66.2779 33.1616 66.3789 33.5132 66.4682L47.4245 42.3731L47.8452 42.616C48.1311 42.781 48.4451 42.8443 48.7543 42.8172C48.8569 42.8065 48.9581 42.7906 49.0585 42.761C49.2798 42.6964 49.4853 42.5833 49.6661 42.4296C49.8109 42.3077 49.9385 42.1627 50.0389 41.9888L52.7929 43.5788C52.7361 43.6772 52.691 43.7781 52.6577 43.8813C52.5526 44.1923 52.542 44.5142 52.6176 44.8159C52.6422 44.9176 52.679 45.0132 52.721 45.1074C52.8522 45.3887 53.064 45.629 53.3499 45.7941L61.6283 50.5736C61.9142 50.7387 62.2282 50.8019 62.5374 50.7749C62.64 50.7642 62.7412 50.7483 62.8416 50.7187C63.1406 50.6333 63.4141 50.4632 63.6309 50.2167C63.7037 50.1362 63.7685 50.0468 63.8253 49.9484L67.7093 43.2211C67.8229 43.0243 67.8914 42.8145 67.919 42.6074C67.9615 42.2909 67.9123 41.9738 67.7793 41.6958C67.6481 41.4145 67.4363 41.1742 67.1504 41.0091L58.872 36.2295C58.5861 36.0645 58.272 36.0012 57.9628 36.0283C57.6536 36.0553 57.3545 36.1712 57.1035 36.3631C56.936 36.4938 56.7886 36.658 56.6769 36.8515L53.9229 35.2615C54.0365 35.0647 54.105 34.855 54.1326 34.6478C54.1751 34.3313 54.1259 34.0142 53.9929 33.7362C53.8598 33.4582 53.6499 33.2146 53.364 33.0495L46.9917 29.3705C46.1274 28.8714 45.2076 28.476 44.2508 28.1903C43.294 27.9047 42.3014 27.734 41.2887 27.6741L38.3452 27.5053L33.6537 27.2371L24.84 26.7318C24.6885 26.7361 24.5491 26.765 24.4257 26.8118C24.3004 26.8619 24.1877 26.9281 24.0909 27.0122C23.9442 27.1373 23.8312 27.2951 23.7581 27.4672Z" fill="#FCFCFC"/><path d="M71.458 31.7964V17.6582H79.9998V69.4981H71.458V51.8254L76.7598 44.4618L71.458 31.7964Z" stroke="#FCFCFC" stroke-width="3"/><path d="M40.5308 10V16.48L47.3053 18.2473L40.5308 10Z" fill="#FCFCFC"/><path d="M50.5376 58.9668L54.3891 64.178L57.9637 57.5407L50.5376 58.9668Z" fill="#FCFCFC"/><path d="M61.3228 21.1929L58.2039 22.0286L60.6298 24.8965L61.3228 21.1929Z" fill="#FCFCFC"/><defs><linearGradient id="paint0_linear_58_1616" x1="35.3965" y1="20" x2="83.3944" y2="67.5465" gradientUnits="userSpaceOnUse"><stop offset="0.461225" stop-color="#669A3B"/><stop offset="1" stop-color="#669A3B" stop-opacity="0"/></linearGradient></defs></svg>