<svg width="80" height="80" viewBox="0 0 80 80" fill="none" xmlns="http://www.w3.org/2000/svg"><path d="M20.6895 49.4952C20.6895 60.819 29.7699 70 40.9697 70C52.1695 70 61.25 60.819 61.25 49.4952C61.25 38.1714 40.9697 10 40.9697 10C40.9697 10 20.6895 38.1714 20.6895 49.4952Z" stroke="white" stroke-width="3" stroke-miterlimit="10"/><path d="M45.7665 39.8013L47.0719 48.7515L56.0221 50.0568L47.0719 51.3621L45.7665 60.3124L44.4612 51.3621L35.511 50.0568L44.4612 48.7515L45.7665 39.8013Z" fill="#FCFCFC"/><path d="M21.1533 15.188L21.9365 20.5581L27.3067 21.3413L21.9365 22.1245L21.1533 27.4947L20.3701 22.1245L15 21.3413L20.3701 20.5581L21.1533 15.188Z" fill="#FCFCFC"/><path d="M60.6372 21.3413L61.2246 25.3689L65.2522 25.9563L61.2246 26.5437L60.6372 30.5713L60.0498 26.5437L56.0222 25.9563L60.0498 25.3689L60.6372 21.3413Z" fill="#FCFCFC"/></svg>