<svg width="91" height="46" viewBox="0 0 91 46" fill="none" xmlns="http://www.w3.org/2000/svg"><path d="M1.52509 44C2.31588 20.394 21.7015 1.5 45.5 1.5C69.2985 1.5 88.6841 20.394 89.4749 44H89.4192H89.3091H89.1977H89.0851H88.9711H88.8559H88.7394H88.6216H88.5026H88.3824H88.2609H88.1381H88.0142H87.889H87.7626H87.6349H87.5061H87.3761H87.2448H87.1124H86.9788H86.8441H86.7081H86.571H86.4328H86.2933H86.1528H86.0111H85.8683H85.7243H85.5792H85.433H85.2857H85.1373H84.9878H84.8372H84.6856H84.5328H84.379H84.2241H84.0682H83.9112H83.7531H83.594H83.4339H83.2728H83.1106H82.9474H82.7832H82.618H82.4518H82.2846H82.1164H81.9473H81.7771H81.606H81.434H81.2609H81.087H80.9121H80.7362H80.5594H80.3817H80.2031H80.0236H79.8431H79.6618H79.4796H79.2965H79.1125H78.9276H78.7418H78.5552H78.3678H78.1794H77.9903H77.8003H77.6094H77.4178H77.2253H77.032H76.8379H76.643H76.4473H76.2508H76.0535H75.8554H75.6566H75.457H75.2567H75.0556H74.8537H74.6511H74.4478H74.2437H74.039H73.8335H73.6273H73.4203H73.2127H73.0044H72.7955H72.5858H72.3755H72.1645H71.9528H71.7405H71.5275H71.3139H71.0996H70.8848H70.6693H70.4531H70.2364H70.0191H69.8011H69.5826H69.3634H69.1437H68.9235H68.7026H68.4812H68.2592H68.0367H67.8136H67.59H67.3659H67.1412H66.916H66.6903H66.4641H66.2374H66.0102H65.7825H65.5544H65.3257H65.0966H64.867H64.6369H64.4064H64.1755H63.9441H63.7122H63.48H63.2473H63.0142H62.7807H62.5468H62.3125H62.0778H61.8427H61.6073H61.3714H61.1352H60.8986H60.6617H60.4245H60.1868H59.9489H59.7106H59.472H59.2331H58.9939H58.7543H58.5145H58.2743H58.0339H57.7932H57.5522H57.311H57.0695H56.8277H56.5857H56.3434H56.1009H55.8582H55.6152H55.3721H55.1287H54.8851H54.6412H54.3972H54.1531H53.9087H53.6641H53.4194H53.1745H52.9295H52.6843H52.4389H52.1934H51.9478H51.7021H51.4562H51.2102H50.9641H50.7179H50.4716H50.2252H49.9787H49.7322H49.4855H49.2388H48.9921H48.7453H48.4984H48.2515H48.0045H47.7576H47.5106H47.2636H47.0165H46.7695H46.5225H46.2754H46.0284H45.7814H45.5345H45.2875H45.0406H44.7937H44.5469H44.3002H44.0535H43.8069H43.5603H43.3138H43.0674H42.8211H42.5749H42.3288H42.0829H41.837H41.5913H41.3456H41.1002H40.8548H40.6096H40.3646H40.1197H39.875H39.6305H39.3861H39.1419H38.8979H38.6541H38.4105H38.1672H37.924H37.681H37.4383H37.1958H36.9536H36.7116H36.4698H36.2283H35.9871H35.7461H35.5054H35.265H35.0249H34.7851H34.5456H34.3064H34.0675H33.8289H33.5906H33.3527H33.1151H32.8778H32.6409H32.4044H32.1682H31.9324H31.697H31.4619H31.2272H30.9929H30.7591H30.5256H30.2925H30.0598H29.8276H29.5958H29.3644H29.1335H28.903H28.673H28.4435H28.2144H27.9857H27.7576H27.5299H27.3027H27.076H26.8499H26.6242H26.399H26.1744H25.9503H25.7267H25.5037H25.2812H25.0593H24.8379H24.6171H24.3968H24.1772H23.9581H23.7396H23.5217H23.3043H23.0877H22.8716H22.6561H22.4412H22.227H22.0135H21.8005H21.5882H21.3766H21.1657H20.9554H20.7457H20.5368H20.3285H20.121H19.9141H19.7079H19.5025H19.2977H19.0937H18.8904H18.6879H18.4861H18.285H18.0847H17.8852H17.6864H17.4884H17.2911H17.0947H16.899H16.7042H16.5101H16.3169H16.1244H15.9328H15.742H15.5521H15.363H15.1747H14.9873H14.8007H14.615H14.4302H14.2462H14.0632H13.881H13.6997H13.5193H13.3398H13.1613H12.9836H12.8069H12.6311H12.4562H12.2823H12.1094H11.9374H11.7663H11.5962H11.4271H11.259H11.0919H10.9257H10.7606H10.5965H10.4333H10.2712H10.1101H9.95005H9.79103H9.63304H9.4761H9.32022H9.1654H9.01164H8.85895H8.70734H8.55682H8.40738H8.25904H8.11181H7.96568H7.82067H7.67678H7.53402H7.39239H7.25189H7.11255H6.97435H6.83732H6.70145H6.56674H6.43322H6.30087H6.16971H6.03975H5.91099H5.78344H5.6571H5.53197H5.40807H5.28541H5.16398H5.04379H4.92486H4.80718H4.69076H4.57561H4.46173H4.34913H4.23782H4.1278H4.01908H3.91167H3.80557H3.70078H3.59731H3.49518H3.39438H3.29492H3.19681H3.10005H3.00466H2.91063H2.81797H2.72669H2.63679H2.54828H2.46117H2.37547H2.29117H2.20828H2.12682H2.04679H1.96818H1.89102H1.8153H1.74104H1.66823H1.59689H1.52701H1.52509Z" stroke="#FCFCFC" stroke-width="3"/></svg>