<svg width="80" height="80" viewBox="0 0 105 90" fill="none" xmlns="http://www.w3.org/2000/svg"><path d="M53.5979 63.6715C61.4052 63.6715 67.7343 57.3095 67.7343 49.4617C67.7343 41.6139 61.4052 35.252 53.5979 35.252C45.7905 35.252 39.4614 41.6139 39.4614 49.4617C39.4614 57.3095 45.7905 63.6715 53.5979 63.6715Z" stroke="#FCFCFC" stroke-width="3" stroke-miterlimit="10"/><path d="M42.9223 58.7729L31.7563 70" stroke="#FCFCFC" stroke-width="3" stroke-miterlimit="10" stroke-linecap="round"/><path d="M59.1357 51.5528C59.1357 54.8045 56.5136 57.4435 53.2754 57.4435C50.0372 57.4435 47.415 54.8078 47.415 51.5528C47.415 48.2978 53.2754 40.209 53.2754 40.209C53.2754 40.209 59.1357 48.3011 59.1357 51.5528Z" fill="#FCFCFC"/><path d="M47.4832 12.2988H23V25.7305H47.4832V12.2988Z" stroke="#FCFCFC" stroke-width="3" stroke-miterlimit="10"/><path d="M55.3881 10H49.9277C48.5775 10 47.4829 11.1002 47.4829 12.4574V25.5746C47.4829 26.9319 48.5775 28.0321 49.9277 28.0321H55.3881C56.7383 28.0321 57.8329 26.9319 57.8329 25.5746V12.4574C57.8329 11.1002 56.7383 10 55.3881 10Z" stroke="#FCFCFC" stroke-width="3" stroke-miterlimit="10"/><path d="M82.2613 12.2988H57.833V25.7305H82.2613V12.2988Z" stroke="#FCFCFC" stroke-width="3" stroke-miterlimit="10"/></svg>