<svg width="21" height="30" viewBox="0 0 21 30" fill="none" xmlns="http://www.w3.org/2000/svg"><path d="M11.2294 27.7119C10.8862 28.0754 10.5852 28.3802 10.3417 28.6203C10.098 28.3799 9.79665 28.0745 9.45293 27.7104C8.50643 26.7075 7.24434 25.2638 5.98378 23.5037C3.44359 19.9568 1 15.2499 1 10.3359C1 5.28649 5.00195 1.17751 10.0093 1.0056H10.3415C15.4951 1.0056 19.6775 5.1831 19.6775 10.3415C19.6775 15.2585 17.2351 19.964 14.6965 23.5086C13.4367 25.2676 12.1754 26.71 11.2294 27.7119Z" stroke="#A2C118" stroke-width="2" stroke-miterlimit="10"/><path d="M15.8422 10.3359C15.8422 13.3768 13.377 15.842 10.336 15.842C7.29502 15.842 4.82983 13.3768 4.82983 10.3359C4.82983 7.2949 7.29502 4.82971 10.336 4.82971C13.377 4.82971 15.8422 7.2949 15.8422 10.3359Z" stroke="#A2C118" stroke-width="2" stroke-miterlimit="10"/></svg>