<svg xmlns="http://www.w3.org/2000/svg" width="170" height="170" fill="none" viewBox="0 0 170 170">
  <path fill="url(#a)" d="M65.35 59.72H46.33v27.4c0 18.71 7.32 31.43 19.51 37.6V60.68c0-.62-.36-.95-.48-.95l-.01-.01Z"/>
  <path fill="url(#b)" d="M61.74 23.35c5.54-2.79 11.7-4.27 17.83-4.27h19.39c3.37 0 6.36 1.71 8.15 4.33h.46c1.79-2.61 4.78-4.33 8.15-4.33h7.08V9.12C111.31 3.29 98.32 0 84.56 0 70.8 0 57.81 3.29 46.32 9.12v22.01l8.48-4.28 6.94-3.5Z"/>
  <path fill="url(#c)" d="M151.26 32.58v54.54c0 44.97-27.59 68-65.83 68-36.5 0-67.57-22.16-67.57-68V32.58C6.67 46.92 0 64.96 0 84.55c0 46.7 37.86 84.56 84.56 84.56s84.56-37.86 84.56-84.56c0-19.6-6.67-37.63-17.86-51.97Z"/>
  <path fill="url(#d)" d="M107.57 55.39h-.46c-.94 1.37-2.21 2.5-3.7 3.26v66.62c12.53-6.15 19.38-19.55 19.38-38.15v-27.4h-7.08c-3.37 0-6.36-1.71-8.15-4.33h.01Z"/>
  <path fill="#fff" d="M24.04 51.15c.02.16.05.33.09.49.34 1.28 1.41 2.35 2.99 2.35h38.23c1.29 0 2.48.42 3.48 1.14 1.65 1.2 2.74 3.24 2.74 5.55v66.36c2.14.66 4.38 1.17 6.73 1.5 2.35.34 4.8.5 7.35.5 3.27 0 6.35-.31 9.23-.9.96-.2 1.89-.43 2.81-.69V53.99h1.28c.87 0 1.67-.27 2.34-.74.22-.16.43-.33.62-.53.42-.44.74-.97.95-1.56.17-.47.27-.97.27-1.5h8.38c0 .3.03.59.09.87.17.85.57 1.6 1.14 2.19.19.2.4.37.62.53.67.47 1.47.74 2.34.74h25.19c.87 0 1.67-.27 2.34-.74.22-.16.43-.33.62-.53.57-.59.97-1.34 1.14-2.19.06-.28.09-.57.09-.87V29.15c0-.6-.12-1.17-.33-1.68-.32-.78-.85-1.44-1.52-1.9-.67-.47-1.47-.74-2.34-.74h-25.19c-.87 0-1.67.27-2.34.74a4.37 4.37 0 0 0-1.52 1.9 4.49 4.49 0 0 0-.33 1.68h-8.38c0-.6-.12-1.17-.33-1.68-.32-.78-.85-1.44-1.52-1.9-.67-.46-1.47-.74-2.34-.74H79.57c-2.63 0-5.25.31-7.81.92-2.56.61-5.05 1.53-7.44 2.73l-6.94 3.5-11.06 5.58-20.78 10.48c-.34.21-.62.46-.84.73-.22.28-.39.58-.5.9-.17.48-.22.99-.16 1.48Z"/>
  <defs>
    <linearGradient id="a" x1="-9.18" x2="168.27" y1="92.22" y2="92.22" gradientUnits="userSpaceOnUse">
      <stop stop-color="#DCDB22"/>
      <stop offset=".14" stop-color="#CFD424"/>
      <stop offset=".4" stop-color="#AEC12B"/>
      <stop offset=".75" stop-color="#78A436"/>
      <stop offset="1" stop-color="#4D8C3F"/>
    </linearGradient>
    <linearGradient id="b" x1="-9.18" x2="168.27" y1="15.56" y2="15.56" gradientUnits="userSpaceOnUse">
      <stop stop-color="#DCDB22"/>
      <stop offset=".14" stop-color="#CFD424"/>
      <stop offset=".4" stop-color="#AEC12B"/>
      <stop offset=".75" stop-color="#78A436"/>
      <stop offset="1" stop-color="#4D8C3F"/>
    </linearGradient>
    <linearGradient id="c" x1="-9.18" x2="168.27" y1="100.85" y2="100.85" gradientUnits="userSpaceOnUse">
      <stop stop-color="#DCDB22"/>
      <stop offset=".14" stop-color="#CFD424"/>
      <stop offset=".4" stop-color="#AEC12B"/>
      <stop offset=".75" stop-color="#78A436"/>
      <stop offset="1" stop-color="#4D8C3F"/>
    </linearGradient>
    <linearGradient id="d" x1="-9.18" x2="168.27" y1="90.33" y2="90.33" gradientUnits="userSpaceOnUse">
      <stop stop-color="#DCDB22"/>
      <stop offset=".14" stop-color="#CFD424"/>
      <stop offset=".4" stop-color="#AEC12B"/>
      <stop offset=".75" stop-color="#78A436"/>
      <stop offset="1" stop-color="#4D8C3F"/>
    </linearGradient>
  </defs>
</svg>
