<svg width="235" height="96" viewBox="0 0 235 96" fill="none" xmlns="http://www.w3.org/2000/svg"><g clip-path="url(#clip0_47_1254)"><path d="M29.0326 85.692H26.0474C25.8757 85.692 25.7139 85.6096 25.6148 85.4711L21.1371 79.1861C21.038 79.0476 20.8762 78.9651 20.7045 78.9651H19.3869C19.093 78.9651 18.8553 79.2025 18.8553 79.496V85.1644C18.8553 85.4579 18.6175 85.6953 18.3236 85.6953H15.8998C15.6059 85.6953 15.3682 85.4579 15.3682 85.1644V68.5813C15.3682 68.2878 15.6059 68.0504 15.8998 68.0504H22.5108C23.2505 68.0504 23.9505 68.1922 24.6044 68.4791C25.2615 68.766 25.8361 69.1551 26.3347 69.6497C26.83 70.1443 27.2263 70.7214 27.5202 71.3776C27.8141 72.0338 27.9627 72.7395 27.9627 73.4946C27.9627 74.6025 27.6754 75.5984 27.1041 76.4821C26.6451 77.1911 26.0705 77.7484 25.3837 78.1605C25.1129 78.3221 25.0271 78.6749 25.212 78.9289L29.4553 84.8545C29.7062 85.204 29.4553 85.692 29.0227 85.692H29.0326ZM21.8603 75.4863C22.7518 75.4863 23.409 75.2884 23.8284 74.8927C24.2477 74.497 24.4591 74.0321 24.4591 73.4946C24.4591 72.9571 24.2477 72.4987 23.8284 72.1228C23.409 71.7436 22.7518 71.5557 21.8603 71.5557H19.3869C19.093 71.5557 18.8553 71.7931 18.8553 72.0866V74.9587C18.8553 75.2522 19.093 75.4896 19.3869 75.4896H21.8603V75.4863Z" fill="white"/><path d="M40.1482 68.1889L47.6243 84.9467C47.7795 85.2963 47.5252 85.692 47.1389 85.692H44.4377C44.2297 85.692 44.0381 85.57 43.9523 85.3787L42.7932 82.7803C42.7074 82.589 42.5191 82.467 42.3078 82.467H36.2615C36.0502 82.467 35.8619 82.5923 35.7761 82.7836C35.5945 83.1958 35.4029 83.631 35.1949 84.0927C34.9902 84.5478 34.8052 84.9731 34.6368 85.3721C34.5543 85.5667 34.3627 85.6953 34.1481 85.6953H31.4766C31.0936 85.6953 30.836 85.3029 30.9912 84.9533L38.3749 68.1955C38.4607 68.0042 38.649 67.8789 38.8603 67.8789H39.6594C39.8675 67.8789 40.059 68.0009 40.1449 68.1922L40.1482 68.1889ZM40.7624 78.2199L39.7618 75.971C39.5736 75.5522 38.9792 75.5522 38.791 75.971L37.7904 78.2199C37.6352 78.5694 37.8928 78.9651 38.2758 78.9651H40.277C40.66 78.9651 40.9176 78.5694 40.7624 78.2199Z" fill="white"/><path d="M54.0272 85.5568L46.5511 68.7989C46.3959 68.4494 46.6502 68.0537 47.0365 68.0537H49.7113C49.9193 68.0537 50.1109 68.1757 50.1967 68.367L54.3905 77.7483C54.5787 78.1671 55.1731 78.1671 55.358 77.7483C55.9887 76.3139 56.6261 74.8762 57.2634 73.4352C58.0163 71.7337 58.7725 70.0454 59.532 68.367C59.6178 68.1757 59.8061 68.057 60.0174 68.057H62.6955C63.0785 68.057 63.3361 68.4494 63.1809 68.7989L55.7741 85.5568C55.6882 85.7481 55.5 85.8734 55.2887 85.8734H54.516C54.3079 85.8734 54.1164 85.7514 54.0305 85.5601L54.0272 85.5568Z" fill="white"/><path d="M71.2414 68.1889L78.7176 84.9467C78.8728 85.2963 78.6185 85.692 78.2322 85.692H75.531C75.3229 85.692 75.1314 85.57 75.0455 85.3787L73.8865 82.7803C73.8006 82.589 73.6124 82.467 73.4011 82.467H67.3548C67.1434 82.467 66.9552 82.5923 66.8693 82.7836C66.6877 83.1958 66.4962 83.631 66.2882 84.0927C66.0834 84.5478 65.8985 84.9731 65.7301 85.3721C65.6475 85.5667 65.456 85.6953 65.2414 85.6953H62.5699C62.1868 85.6953 61.9293 85.3029 62.0845 84.9533L69.4682 68.1955C69.554 68.0042 69.7422 67.8789 69.9536 67.8789H70.7527C70.9607 67.8789 71.1523 68.0009 71.2381 68.1922L71.2414 68.1889ZM71.8556 78.2199L70.8551 75.971C70.6668 75.5522 70.0725 75.5522 69.8842 75.971L68.8837 78.2199C68.7285 78.5694 68.986 78.9651 69.3691 78.9651H71.3702C71.7533 78.9651 72.0108 78.5694 71.8556 78.2199Z" fill="white"/><path d="M88.0859 85.8701C87.0754 85.8701 86.1508 85.6986 85.3088 85.3524C84.4667 85.0094 83.7468 84.5346 83.1524 83.9279C82.5547 83.3244 82.0891 82.6023 81.7523 81.7614C81.4155 80.9205 81.2471 79.9972 81.2471 78.9882V68.5813C81.2471 68.2878 81.4848 68.0504 81.7787 68.0504H84.1992C84.4931 68.0504 84.7309 68.2878 84.7309 68.5813V78.5365C84.7309 79.1234 84.8233 79.6576 85.0083 80.1357C85.1932 80.6139 85.4408 81.0195 85.7512 81.3459C86.0617 81.6724 86.4216 81.9263 86.8245 82.101C87.2273 82.2791 87.65 82.3648 88.0859 82.3648C88.5218 82.3648 88.9445 82.2758 89.3473 82.101C89.7502 81.9263 90.1068 81.6724 90.4205 81.3459C90.7309 81.0195 90.9786 80.6139 91.1635 80.1357C91.3485 79.6576 91.4409 79.1234 91.4409 78.5365V68.5813C91.4409 68.2878 91.6787 68.0504 91.9726 68.0504H94.4195C94.7134 68.0504 94.9511 68.2878 94.9511 68.5813V78.9882C94.9511 79.9972 94.7827 80.9205 94.4459 81.7614C94.1091 82.6023 93.6369 83.3244 93.0326 83.9279C92.4283 84.5313 91.7018 85.0061 90.863 85.3524C90.021 85.6953 89.0964 85.8701 88.0859 85.8701Z" fill="white"/><path d="M108.45 76.9306L114.16 84.8545C114.411 85.204 114.16 85.692 113.73 85.692H110.745C110.573 85.692 110.415 85.6096 110.316 85.4711L106.512 80.2083C106.3 79.9148 105.865 79.9148 105.653 80.205C105.069 81.0096 104.474 81.8274 103.873 82.6649C103.18 83.6311 102.506 84.5643 101.849 85.4711C101.75 85.6096 101.592 85.6887 101.42 85.6887H98.4115C97.9789 85.6887 97.728 85.2007 97.9822 84.8479L103.712 76.924C103.844 76.7393 103.847 76.492 103.712 76.304C103.305 75.7402 102.873 75.1466 102.42 74.5201C101.882 73.7815 101.344 73.0362 100.806 72.291C100.267 71.5425 99.7324 70.8071 99.2041 70.085C98.9003 69.6695 98.6097 69.2705 98.329 68.8814C98.0747 68.5319 98.329 68.0438 98.7583 68.0438H101.77C101.942 68.0438 102.1 68.1263 102.199 68.2648L105.647 73.0428C105.858 73.3363 106.297 73.3363 106.508 73.0428L109.956 68.2648C110.055 68.1263 110.217 68.0438 110.385 68.0438H113.39C113.823 68.0438 114.074 68.5351 113.82 68.8847L108.444 76.304C108.308 76.4887 108.308 76.7393 108.444 76.924L108.45 76.9306Z" fill="white"/><path d="M129.35 85.8701C128.34 85.8701 127.415 85.6986 126.573 85.3524C125.731 85.0094 125.011 84.5346 124.417 83.9279C123.819 83.3244 123.353 82.6023 123.016 81.7614C122.68 80.9205 122.511 79.9972 122.511 78.9882V68.5813C122.511 68.2878 122.749 68.0504 123.043 68.0504H125.463C125.757 68.0504 125.995 68.2878 125.995 68.5813V78.5365C125.995 79.1234 126.088 79.6576 126.272 80.1357C126.457 80.6139 126.705 81.0195 127.015 81.3459C127.326 81.6724 127.686 81.9263 128.089 82.101C128.491 82.2758 128.914 82.3648 129.35 82.3648C129.786 82.3648 130.209 82.2758 130.611 82.101C131.014 81.923 131.371 81.6724 131.685 81.3459C131.995 81.0195 132.243 80.6139 132.428 80.1357C132.613 79.6576 132.705 79.1234 132.705 78.5365V68.5813C132.705 68.2878 132.943 68.0504 133.237 68.0504H135.684C135.978 68.0504 136.215 68.2878 136.215 68.5813V78.9882C136.215 79.9972 136.047 80.9205 135.71 81.7614C135.373 82.6023 134.901 83.3244 134.297 83.9279C133.692 84.5313 132.966 85.0061 132.127 85.3524C131.285 85.6953 130.361 85.8701 129.35 85.8701V85.8701Z" fill="url(#paint0_linear_47_1254)"/><path d="M154.238 85.692H151.253C151.081 85.692 150.92 85.6096 150.821 85.4711L146.343 79.1861C146.244 79.0476 146.082 78.9651 145.91 78.9651H144.593C144.299 78.9651 144.061 79.2025 144.061 79.496V85.1644C144.061 85.4579 143.823 85.6953 143.529 85.6953H141.109C140.815 85.6953 140.577 85.4579 140.577 85.1644V68.5813C140.577 68.2878 140.815 68.0504 141.109 68.0504H147.72C148.459 68.0504 149.16 68.1922 149.813 68.4791C150.47 68.766 151.045 69.1551 151.544 69.6497C152.039 70.1443 152.435 70.7214 152.729 71.3776C153.023 72.0338 153.172 72.7395 153.172 73.4946C153.172 74.6025 152.884 75.5984 152.313 76.4821C151.854 77.1911 151.28 77.7484 150.593 78.1605C150.322 78.3221 150.236 78.6749 150.421 78.9289L154.664 84.8545C154.915 85.204 154.664 85.692 154.232 85.692H154.238ZM147.066 75.4863C147.958 75.4863 148.615 75.2884 149.034 74.8927C149.453 74.497 149.665 74.0321 149.665 73.4946C149.665 72.9571 149.453 72.4987 149.034 72.1228C148.615 71.7436 147.958 71.5557 147.066 71.5557H144.593C144.299 71.5557 144.061 71.7931 144.061 72.0866V74.9587C144.061 75.2522 144.299 75.4896 144.593 75.4896H147.066V75.4863Z" fill="url(#paint1_linear_47_1254)"/><path d="M164.812 75.7138H170.667C170.961 75.7138 171.198 75.9512 171.198 76.2447V82.9814C171.198 83.1364 171.132 83.2848 171.017 83.3837C170.115 84.1619 169.178 84.7654 168.21 85.1875C167.176 85.6425 166.034 85.8667 164.789 85.8667C163.425 85.8667 162.19 85.6095 161.081 85.0984C159.971 84.5873 159.023 83.9146 158.241 83.0837C157.458 82.2527 156.857 81.2997 156.434 80.2214C156.015 79.1465 155.804 78.0385 155.804 76.8943C155.804 75.5324 156.061 74.2958 156.573 73.178C157.085 72.0601 157.759 71.1105 158.591 70.3289C159.423 69.5474 160.377 68.944 161.457 68.5153C162.534 68.0867 163.643 67.8723 164.789 67.8723C165.984 67.8723 167.143 68.1163 168.273 68.6044C169.24 69.0231 170.135 69.6035 170.954 70.3421C171.175 70.5433 171.192 70.8862 170.987 71.1039L169.306 72.868C169.115 73.0692 168.798 73.089 168.583 72.9076C168.068 72.4756 167.523 72.1261 166.949 71.8623C166.232 71.5358 165.515 71.371 164.789 71.371C164.033 71.371 163.319 71.5128 162.656 71.7996C161.992 72.0865 161.411 72.4789 160.915 72.9834C160.42 73.4879 160.027 74.0749 159.743 74.7476C159.456 75.4203 159.314 76.1325 159.314 76.891C159.314 77.6461 159.456 78.3583 159.743 79.0211C160.031 79.6839 160.42 80.2643 160.915 80.7589C161.411 81.2536 161.992 81.646 162.656 81.9295C163.319 82.2164 164.029 82.3582 164.789 82.3582C165.294 82.3582 165.799 82.2857 166.305 82.1439C166.694 82.0351 167.067 81.89 167.417 81.7119C167.599 81.6196 167.718 81.4382 167.718 81.2338V79.7367C167.718 79.4432 167.48 79.2058 167.186 79.2058H164.815C164.521 79.2058 164.284 78.9684 164.284 78.6749V76.2315C164.284 75.938 164.521 75.7006 164.815 75.7006L164.812 75.7138Z" fill="url(#paint2_linear_47_1254)"/><path d="M178.816 72.0833V74.5762C178.816 74.8696 179.054 75.1071 179.348 75.1071H184.017C184.311 75.1071 184.549 75.3445 184.549 75.638V78.1078C184.549 78.4013 184.311 78.6387 184.017 78.6387H179.348C179.054 78.6387 178.816 78.8761 178.816 79.1696V81.6625C178.816 81.956 179.054 82.1934 179.348 82.1934H186.137C186.431 82.1934 186.669 82.4308 186.669 82.7243V85.1677C186.669 85.4612 186.431 85.6986 186.137 85.6986H175.841C175.547 85.6986 175.31 85.4612 175.31 85.1677V68.5846C175.31 68.2911 175.547 68.0537 175.841 68.0537H186.137C186.431 68.0537 186.669 68.2911 186.669 68.5846V71.028C186.669 71.3215 186.431 71.5589 186.137 71.5589H179.348C179.054 71.5589 178.816 71.7964 178.816 72.0898V72.0833Z" fill="url(#paint3_linear_47_1254)"/><path d="M190.708 67.8756H191.514C191.659 67.8756 191.794 67.9383 191.89 68.0438L200.393 77.4779C200.704 77.8242 201.278 77.6032 201.278 77.1383V68.5582C201.278 68.2779 201.506 68.0504 201.787 68.0504H204.253C204.534 68.0504 204.762 68.2779 204.762 68.5582V85.3622C204.762 85.6425 204.534 85.87 204.253 85.87H203.425C203.279 85.87 203.144 85.8074 203.048 85.7019L194.571 76.2941C194.261 75.9479 193.686 76.1688 193.686 76.6338V85.1875C193.686 85.4678 193.459 85.6953 193.178 85.6953H190.711C190.431 85.6953 190.203 85.4678 190.203 85.1875V68.3834C190.203 68.1031 190.431 67.8756 190.711 67.8756H190.708Z" fill="url(#paint4_linear_47_1254)"/><path d="M220.787 71.5557H216.957C216.676 71.5557 216.448 71.7832 216.448 72.0635V85.1875C216.448 85.4678 216.221 85.6953 215.94 85.6953H213.447C213.166 85.6953 212.938 85.4678 212.938 85.1875V72.0635C212.938 71.7832 212.71 71.5557 212.43 71.5557H208.55C208.269 71.5557 208.041 71.3281 208.041 71.0478V68.5582C208.041 68.2779 208.269 68.0504 208.55 68.0504H220.784C221.065 68.0504 221.293 68.2779 221.293 68.5582V71.0478C221.293 71.3281 221.065 71.5557 220.784 71.5557H220.787Z" fill="url(#paint5_linear_47_1254)"/><path d="M229.017 85.8701C228.244 85.8701 227.494 85.7612 226.771 85.5436C226.048 85.326 225.364 85.0127 224.727 84.6104H224.753C224.298 84.3235 223.895 84.0136 223.542 83.6772C223.403 83.5453 223.284 83.4299 223.178 83.3277C222.97 83.1232 222.977 82.7902 223.192 82.5923L225.071 80.8612C225.262 80.6831 225.556 80.6798 225.751 80.8546C225.827 80.9205 225.909 80.9931 226.002 81.0689C226.263 81.2799 226.56 81.4811 226.897 81.6723C227.233 81.8669 227.587 82.0285 227.957 82.1637C228.326 82.2989 228.68 82.3648 229.017 82.3648C229.304 82.3648 229.588 82.3318 229.875 82.2626C230.162 82.1966 230.42 82.0911 230.658 81.946C230.892 81.8042 231.087 81.613 231.239 81.3789C231.391 81.1447 231.467 80.848 231.467 80.4951C231.467 80.3599 231.421 80.2149 231.328 80.0533C231.236 79.895 231.077 79.7202 230.849 79.5356C230.621 79.3509 230.308 79.1531 229.902 78.942C229.499 78.731 228.994 78.51 228.386 78.2726C227.679 78.0055 227.022 77.7153 226.418 77.4021C225.813 77.0921 225.285 76.7261 224.839 76.304C224.394 75.8852 224.047 75.4038 223.806 74.8663C223.561 74.3288 223.439 73.7056 223.439 72.9999C223.439 72.2778 223.575 71.6018 223.842 70.972C224.11 70.3421 224.493 69.7948 224.991 69.3331C225.487 68.8715 226.084 68.5087 226.784 68.2482C227.481 67.9877 228.251 67.8591 229.093 67.8591C229.548 67.8591 230.03 67.9185 230.542 68.0372C231.054 68.1559 231.556 68.3076 232.045 68.4923C232.533 68.6769 232.992 68.8913 233.422 69.1353C233.659 69.2705 233.877 69.4057 234.069 69.5442C234.31 69.7156 234.36 70.0487 234.175 70.2762L232.609 72.2382C232.451 72.4394 232.164 72.4888 231.946 72.3536C231.744 72.2283 231.543 72.1096 231.338 71.9942C231.051 71.8425 230.724 71.7007 230.354 71.5655C229.984 71.4303 229.604 71.3644 229.218 71.3644C228.511 71.3644 227.96 71.5029 227.564 71.7799C227.167 72.0568 226.969 72.4558 226.969 72.9768C226.969 73.211 227.042 73.4253 227.184 73.6199C227.326 73.8144 227.521 73.9892 227.765 74.1475C228.009 74.309 228.29 74.4541 228.61 74.5893C228.931 74.7245 229.268 74.8498 229.621 74.9685C230.631 75.3543 231.48 75.7467 232.17 76.1391C232.86 76.5348 233.415 76.9536 233.835 77.3988C234.254 77.844 234.554 78.3221 234.729 78.8365C234.908 79.3509 234.994 79.9082 234.994 80.5116C234.994 81.2503 234.842 81.9493 234.538 82.6022C234.234 83.2584 233.818 83.8256 233.29 84.3037C232.761 84.7819 232.127 85.1611 231.397 85.4381C230.664 85.7151 229.872 85.8536 229.013 85.8536L229.017 85.8701Z" fill="url(#paint6_linear_47_1254)"/><path d="M110.114 19.6926H103.833V28.7278C103.833 34.8974 106.251 39.0918 110.276 41.1263V20.0092C110.276 19.8047 110.157 19.6959 110.118 19.6959L110.114 19.6926Z" fill="url(#paint7_linear_47_1254)"/><path d="M108.923 7.69965C110.752 6.77965 112.786 6.29162 114.81 6.29162H121.213C122.326 6.29162 123.313 6.85549 123.905 7.71944H124.056C124.648 6.85879 125.635 6.29162 126.748 6.29162H129.086V3.00732C125.291 1.08488 121.002 0 116.458 0C111.914 0 107.625 1.08488 103.831 3.00732V10.2651L106.631 8.85378L108.923 7.69965V7.69965Z" fill="url(#paint8_linear_47_1254)"/><path d="M138.484 10.7433V28.7278C138.484 43.5567 129.373 51.1508 116.745 51.1508C104.692 51.1508 94.4324 43.8436 94.4324 28.7278V10.7433C90.7372 15.4719 88.5347 21.4206 88.5347 27.8804C88.5347 43.2797 101.037 55.764 116.458 55.764C131.879 55.764 144.381 43.2797 144.381 27.8804C144.381 21.4173 142.179 15.4719 138.484 10.7433V10.7433Z" fill="url(#paint9_linear_47_1254)"/><path d="M124.056 18.2648H123.904C123.594 18.7165 123.175 19.0891 122.683 19.3398V41.3077C126.82 39.2797 129.082 34.8611 129.082 28.7277V19.6926H126.744C125.631 19.6926 124.644 19.1287 124.053 18.2648H124.056Z" fill="url(#paint10_linear_47_1254)"/><path d="M96.4734 16.8666C96.48 16.9194 96.4899 16.9754 96.5031 17.0282C96.6154 17.4503 96.9687 17.8031 97.4905 17.8031H110.115C110.541 17.8031 110.934 17.9416 111.264 18.179C111.809 18.5747 112.169 19.2474 112.169 20.0091V41.8913C112.875 42.109 113.615 42.2771 114.391 42.3859C115.167 42.4981 115.976 42.5508 116.818 42.5508C117.898 42.5508 118.915 42.4486 119.866 42.2541C120.183 42.1881 120.49 42.1123 120.794 42.0265V17.8031H121.217C121.504 17.8031 121.768 17.7141 121.989 17.5591C122.062 17.5063 122.131 17.4503 122.194 17.3843C122.333 17.2392 122.438 17.0645 122.508 16.8699C122.564 16.7149 122.597 16.5501 122.597 16.3753H125.364C125.364 16.4742 125.374 16.5699 125.394 16.6622C125.45 16.9425 125.582 17.1898 125.77 17.3843C125.833 17.4503 125.902 17.5063 125.975 17.5591C126.196 17.7141 126.461 17.8031 126.748 17.8031H135.066C135.353 17.8031 135.617 17.7141 135.839 17.5591C135.911 17.5063 135.981 17.4503 136.043 17.3843C136.232 17.1898 136.364 16.9425 136.42 16.6622C136.44 16.5699 136.45 16.4742 136.45 16.3753V9.61214C136.45 9.41429 136.41 9.22633 136.341 9.05816C136.235 8.80096 136.06 8.58332 135.839 8.43164C135.617 8.27665 135.353 8.18762 135.066 8.18762H126.748C126.461 8.18762 126.196 8.27665 125.975 8.43164C125.754 8.58662 125.579 8.80425 125.473 9.05816C125.404 9.22963 125.364 9.41759 125.364 9.61214H122.597C122.597 9.41429 122.557 9.22633 122.488 9.05816C122.382 8.80096 122.207 8.58332 121.986 8.43164C121.765 8.27995 121.501 8.18762 121.213 8.18762H114.81C113.942 8.18762 113.077 8.28984 112.231 8.49099C111.386 8.69214 110.564 8.99551 109.775 9.39121L107.483 10.5453L103.831 12.3853L96.9687 15.8411C96.8564 15.9104 96.764 15.9928 96.6913 16.0818C96.6187 16.1742 96.5625 16.2731 96.5262 16.3786C96.4701 16.5369 96.4536 16.7051 96.4734 16.8666V16.8666Z" fill="white"/><path d="M234.402 96H0.884766L1.48246 95.2152H235L234.402 96Z" fill="url(#paint11_linear_47_1254)"/><path d="M12.72 71.4667H8.93571C8.64182 71.4667 8.40406 71.7041 8.40406 71.9976V85.0754C8.40406 85.3689 8.1663 85.6063 7.87241 85.6063H5.42549C5.1316 85.6063 4.89384 85.3689 4.89384 85.0754V71.9976C4.89384 71.7041 4.65608 71.4667 4.36219 71.4667H0.531652C0.237757 71.4667 0 71.2292 0 70.9358V68.4923C0 68.1988 0.237757 67.9614 0.531652 67.9614H12.72C13.0139 67.9614 13.2517 68.1988 13.2517 68.4923V70.9358C13.2517 71.2292 13.0139 71.4667 12.72 71.4667Z" fill="white"/></g><defs><linearGradient id="paint0_linear_47_1254" x1="114.599" y1="69.2705" x2="200.26" y2="107.774" gradientUnits="userSpaceOnUse"><stop stop-color="#DCDB22"/><stop offset="0.14" stop-color="#CFD424"/><stop offset="0.4" stop-color="#AEC12B"/><stop offset="0.75" stop-color="#78A436"/><stop offset="1" stop-color="#4D8C3F"/></linearGradient><linearGradient id="paint1_linear_47_1254" x1="116.841" y1="64.2814" x2="202.502" y2="102.785" gradientUnits="userSpaceOnUse"><stop stop-color="#DCDB22"/><stop offset="0.14" stop-color="#CFD424"/><stop offset="0.4" stop-color="#AEC12B"/><stop offset="0.75" stop-color="#78A436"/><stop offset="1" stop-color="#4D8C3F"/></linearGradient><linearGradient id="paint2_linear_47_1254" x1="120.157" y1="56.9015" x2="205.817" y2="95.405" gradientUnits="userSpaceOnUse"><stop stop-color="#DCDB22"/><stop offset="0.14" stop-color="#CFD424"/><stop offset="0.4" stop-color="#AEC12B"/><stop offset="0.75" stop-color="#78A436"/><stop offset="1" stop-color="#4D8C3F"/></linearGradient><linearGradient id="paint3_linear_47_1254" x1="122.887" y1="50.8309" x2="208.548" y2="89.3342" gradientUnits="userSpaceOnUse"><stop stop-color="#DCDB22"/><stop offset="0.14" stop-color="#CFD424"/><stop offset="0.4" stop-color="#AEC12B"/><stop offset="0.75" stop-color="#78A436"/><stop offset="1" stop-color="#4D8C3F"/></linearGradient><linearGradient id="paint4_linear_47_1254" x1="125.651" y1="44.6777" x2="211.312" y2="83.1812" gradientUnits="userSpaceOnUse"><stop stop-color="#DCDB22"/><stop offset="0.14" stop-color="#CFD424"/><stop offset="0.4" stop-color="#AEC12B"/><stop offset="0.75" stop-color="#78A436"/><stop offset="1" stop-color="#4D8C3F"/></linearGradient><linearGradient id="paint5_linear_47_1254" x1="128.947" y1="37.3507" x2="214.604" y2="75.8575" gradientUnits="userSpaceOnUse"><stop stop-color="#DCDB22"/><stop offset="0.14" stop-color="#CFD424"/><stop offset="0.4" stop-color="#AEC12B"/><stop offset="0.75" stop-color="#78A436"/><stop offset="1" stop-color="#4D8C3F"/></linearGradient><linearGradient id="paint6_linear_47_1254" x1="130.938" y1="32.9156" x2="216.599" y2="71.4191" gradientUnits="userSpaceOnUse"><stop stop-color="#DCDB22"/><stop offset="0.14" stop-color="#CFD424"/><stop offset="0.4" stop-color="#AEC12B"/><stop offset="0.75" stop-color="#78A436"/><stop offset="1" stop-color="#4D8C3F"/></linearGradient><linearGradient id="paint7_linear_47_1254" x1="85.5031" y1="30.4095" x2="144.1" y2="30.4095" gradientUnits="userSpaceOnUse"><stop stop-color="#DCDB22"/><stop offset="0.14" stop-color="#CFD424"/><stop offset="0.4" stop-color="#AEC12B"/><stop offset="0.75" stop-color="#78A436"/><stop offset="1" stop-color="#4D8C3F"/></linearGradient><linearGradient id="paint8_linear_47_1254" x1="85.5034" y1="5.1309" x2="144.101" y2="5.1309" gradientUnits="userSpaceOnUse"><stop stop-color="#DCDB22"/><stop offset="0.14" stop-color="#CFD424"/><stop offset="0.4" stop-color="#AEC12B"/><stop offset="0.75" stop-color="#78A436"/><stop offset="1" stop-color="#4D8C3F"/></linearGradient><linearGradient id="paint9_linear_47_1254" x1="85.5033" y1="33.2553" x2="144.101" y2="33.2553" gradientUnits="userSpaceOnUse"><stop stop-color="#DCDB22"/><stop offset="0.14" stop-color="#CFD424"/><stop offset="0.4" stop-color="#AEC12B"/><stop offset="0.75" stop-color="#78A436"/><stop offset="1" stop-color="#4D8C3F"/></linearGradient><linearGradient id="paint10_linear_47_1254" x1="85.5033" y1="29.7862" x2="144.101" y2="29.7862" gradientUnits="userSpaceOnUse"><stop stop-color="#DCDB22"/><stop offset="0.14" stop-color="#CFD424"/><stop offset="0.4" stop-color="#AEC12B"/><stop offset="0.75" stop-color="#78A436"/><stop offset="1" stop-color="#4D8C3F"/></linearGradient><linearGradient id="paint11_linear_47_1254" x1="0.884766" y1="95.6076" x2="226.18" y2="95.6076" gradientUnits="userSpaceOnUse"><stop stop-color="#DCDB22"/><stop offset="0.14" stop-color="#CFD424"/><stop offset="0.4" stop-color="#AEC12B"/><stop offset="0.75" stop-color="#78A436"/><stop offset="1" stop-color="#4D8C3F"/></linearGradient><clipPath id="clip0_47_1254"><rect width="235" height="96" fill="white"/></clipPath></defs></svg>