<svg width="712" height="292" viewBox="0 0 712 292" fill="none" xmlns="http://www.w3.org/2000/svg"><g clip-path="url(#clip0_5_100)"><path d="M87.92 259.87H78.88C78.36 259.87 77.87 259.62 77.57 259.2L64.01 240.14C63.71 239.72 63.22 239.47 62.7 239.47H58.71C57.82 239.47 57.1 240.19 57.1 241.08V258.27C57.1 259.16 56.38 259.88 55.49 259.88H48.15C47.26 259.88 46.54 259.16 46.54 258.27V207.98C46.54 207.09 47.26 206.37 48.15 206.37H68.17C70.41 206.37 72.53 206.8 74.51 207.67C76.5 208.54 78.24 209.72 79.75 211.22C81.25 212.72 82.45 214.47 83.34 216.46C84.23 218.45 84.68 220.59 84.68 222.88C84.68 226.24 83.81 229.26 82.08 231.94C80.69 234.09 78.95 235.78 76.87 237.03C76.05 237.52 75.79 238.59 76.35 239.36L89.2 257.33C89.96 258.39 89.2 259.87 87.89 259.87H87.92ZM66.2 228.92C68.9 228.92 70.89 228.32 72.16 227.12C73.43 225.92 74.07 224.51 74.07 222.88C74.07 221.25 73.43 219.86 72.16 218.72C70.89 217.57 68.9 217 66.2 217H58.71C57.82 217 57.1 217.72 57.1 218.61V227.32C57.1 228.21 57.82 228.93 58.71 228.93H66.2V228.92Z" fill="#222222"/><path d="M121.58 206.79L144.22 257.61C144.69 258.67 143.92 259.87 142.75 259.87H134.57C133.94 259.87 133.36 259.5 133.1 258.92L129.59 251.04C129.33 250.46 128.76 250.09 128.12 250.09H109.81C109.17 250.09 108.6 250.47 108.34 251.05C107.79 252.3 107.21 253.62 106.58 255.02C105.96 256.4 105.4 257.69 104.89 258.9C104.64 259.49 104.06 259.88 103.41 259.88H95.3199C94.1599 259.88 93.3799 258.69 93.8499 257.63L116.21 206.81C116.47 206.23 117.04 205.85 117.68 205.85H120.1C120.73 205.85 121.31 206.22 121.57 206.8L121.58 206.79ZM123.44 237.21L120.41 230.39C119.84 229.12 118.04 229.12 117.47 230.39L114.44 237.21C113.97 238.27 114.75 239.47 115.91 239.47H121.97C123.13 239.47 123.91 238.27 123.44 237.21Z" fill="#222222"/><path d="M163.61 259.46L140.97 208.64C140.5 207.58 141.27 206.38 142.44 206.38H150.54C151.17 206.38 151.75 206.75 152.01 207.33L164.71 235.78C165.28 237.05 167.08 237.05 167.64 235.78C169.55 231.43 171.48 227.07 173.41 222.7C175.69 217.54 177.98 212.42 180.28 207.33C180.54 206.75 181.11 206.39 181.75 206.39H189.86C191.02 206.39 191.8 207.58 191.33 208.64L168.9 259.46C168.64 260.04 168.07 260.42 167.43 260.42H165.09C164.46 260.42 163.88 260.05 163.62 259.47L163.61 259.46Z" fill="#222222"/><path d="M215.74 206.79L238.38 257.61C238.85 258.67 238.08 259.87 236.91 259.87H228.73C228.1 259.87 227.52 259.5 227.26 258.92L223.75 251.04C223.49 250.46 222.92 250.09 222.28 250.09H203.97C203.33 250.09 202.76 250.47 202.5 251.05C201.95 252.3 201.37 253.62 200.74 255.02C200.12 256.4 199.56 257.69 199.05 258.9C198.8 259.49 198.22 259.88 197.57 259.88H189.48C188.32 259.88 187.54 258.69 188.01 257.63L210.37 206.81C210.63 206.23 211.2 205.85 211.84 205.85H214.26C214.89 205.85 215.47 206.22 215.73 206.8L215.74 206.79ZM217.6 237.21L214.57 230.39C214 229.12 212.2 229.12 211.63 230.39L208.6 237.21C208.13 238.27 208.91 239.47 210.07 239.47H216.13C217.29 239.47 218.07 238.27 217.6 237.21Z" fill="#222222"/><path d="M266.75 260.41C263.69 260.41 260.89 259.89 258.34 258.84C255.79 257.8 253.61 256.36 251.81 254.52C250 252.69 248.59 250.5 247.57 247.95C246.55 245.4 246.04 242.6 246.04 239.54V207.98C246.04 207.09 246.76 206.37 247.65 206.37H254.98C255.87 206.37 256.59 207.09 256.59 207.98V238.17C256.59 239.95 256.87 241.57 257.43 243.02C257.99 244.47 258.74 245.7 259.68 246.69C260.62 247.68 261.71 248.45 262.93 248.98C264.15 249.52 265.43 249.78 266.75 249.78C268.07 249.78 269.35 249.51 270.57 248.98C271.79 248.45 272.87 247.68 273.82 246.69C274.76 245.7 275.51 244.47 276.07 243.02C276.63 241.57 276.91 239.95 276.91 238.17V207.98C276.91 207.09 277.63 206.37 278.52 206.37H285.93C286.82 206.37 287.54 207.09 287.54 207.98V239.54C287.54 242.6 287.03 245.4 286.01 247.95C284.99 250.5 283.56 252.69 281.73 254.52C279.9 256.35 277.7 257.79 275.16 258.84C272.61 259.88 269.81 260.41 266.75 260.41Z" fill="#222222"/><path d="M328.42 233.3L345.71 257.33C346.47 258.39 345.71 259.87 344.41 259.87H335.37C334.85 259.87 334.37 259.62 334.07 259.2L322.55 243.24C321.91 242.35 320.59 242.35 319.95 243.23C318.18 245.67 316.38 248.15 314.56 250.69C312.46 253.62 310.42 256.45 308.43 259.2C308.13 259.62 307.65 259.86 307.13 259.86H298.02C296.71 259.86 295.95 258.38 296.72 257.31L314.07 233.28C314.47 232.72 314.48 231.97 314.07 231.4C312.84 229.69 311.53 227.89 310.16 225.99C308.53 223.75 306.9 221.49 305.27 219.23C303.64 216.96 302.02 214.73 300.42 212.54C299.5 211.28 298.62 210.07 297.77 208.89C297 207.83 297.77 206.35 299.07 206.35H308.19C308.71 206.35 309.19 206.6 309.49 207.02L319.93 221.51C320.57 222.4 321.9 222.4 322.54 221.51L332.98 207.02C333.28 206.6 333.77 206.35 334.28 206.35H343.38C344.69 206.35 345.45 207.84 344.68 208.9L328.4 231.4C327.99 231.96 327.99 232.72 328.4 233.28L328.42 233.3Z" fill="#222222"/><path d="M391.71 260.41C388.65 260.41 385.85 259.89 383.3 258.84C380.75 257.8 378.57 256.36 376.77 254.52C374.96 252.69 373.55 250.5 372.53 247.95C371.51 245.4 371 242.6 371 239.54V207.98C371 207.09 371.72 206.37 372.61 206.37H379.94C380.83 206.37 381.55 207.09 381.55 207.98V238.17C381.55 239.95 381.83 241.57 382.39 243.02C382.95 244.47 383.7 245.7 384.64 246.69C385.58 247.68 386.67 248.45 387.89 248.98C389.11 249.51 390.39 249.78 391.71 249.78C393.03 249.78 394.31 249.51 395.53 248.98C396.75 248.44 397.83 247.68 398.78 246.69C399.72 245.7 400.47 244.47 401.03 243.02C401.59 241.57 401.87 239.95 401.87 238.17V207.98C401.87 207.09 402.59 206.37 403.48 206.37H410.89C411.78 206.37 412.5 207.09 412.5 207.98V239.54C412.5 242.6 411.99 245.4 410.97 247.95C409.95 250.5 408.52 252.69 406.69 254.52C404.86 256.35 402.66 257.79 400.12 258.84C397.57 259.88 394.77 260.41 391.71 260.41Z" fill="url(#paint0_linear_5_100)"/><path d="M467.08 259.87H458.04C457.52 259.87 457.03 259.62 456.73 259.2L443.17 240.14C442.87 239.72 442.38 239.47 441.86 239.47H437.87C436.98 239.47 436.26 240.19 436.26 241.08V258.27C436.26 259.16 435.54 259.88 434.65 259.88H427.32C426.43 259.88 425.71 259.16 425.71 258.27V207.98C425.71 207.09 426.43 206.37 427.32 206.37H447.34C449.58 206.37 451.7 206.8 453.68 207.67C455.67 208.54 457.41 209.72 458.92 211.22C460.42 212.72 461.62 214.47 462.51 216.46C463.4 218.45 463.85 220.59 463.85 222.88C463.85 226.24 462.98 229.26 461.25 231.94C459.86 234.09 458.12 235.78 456.04 237.03C455.22 237.52 454.96 238.59 455.52 239.36L468.37 257.33C469.13 258.39 468.37 259.87 467.06 259.87H467.08ZM445.36 228.92C448.06 228.92 450.05 228.32 451.32 227.12C452.59 225.92 453.23 224.51 453.23 222.88C453.23 221.25 452.59 219.86 451.32 218.72C450.05 217.57 448.06 217 445.36 217H437.87C436.98 217 436.26 217.72 436.26 218.61V227.32C436.26 228.21 436.98 228.93 437.87 228.93H445.36V228.92Z" fill="url(#paint1_linear_5_100)"/><path d="M499.1 229.61H516.83C517.72 229.61 518.44 230.33 518.44 231.22V251.65C518.44 252.12 518.24 252.57 517.89 252.87C515.16 255.23 512.32 257.06 509.39 258.34C506.26 259.72 502.8 260.4 499.03 260.4C494.9 260.4 491.16 259.62 487.8 258.07C484.44 256.52 481.57 254.48 479.2 251.96C476.83 249.44 475.01 246.55 473.73 243.28C472.46 240.02 471.82 236.66 471.82 233.19C471.82 229.06 472.6 225.31 474.15 221.92C475.7 218.53 477.74 215.65 480.26 213.28C482.78 210.91 485.67 209.08 488.94 207.78C492.2 206.48 495.56 205.83 499.03 205.83C502.65 205.83 506.16 206.57 509.58 208.05C512.51 209.32 515.22 211.08 517.7 213.32C518.37 213.93 518.42 214.97 517.8 215.63L512.71 220.98C512.13 221.59 511.17 221.65 510.52 221.1C508.96 219.79 507.31 218.73 505.57 217.93C503.4 216.94 501.23 216.44 499.03 216.44C496.74 216.44 494.58 216.87 492.57 217.74C490.56 218.61 488.8 219.8 487.3 221.33C485.8 222.86 484.61 224.64 483.75 226.68C482.88 228.72 482.45 230.88 482.45 233.18C482.45 235.47 482.88 237.63 483.75 239.64C484.62 241.65 485.8 243.41 487.3 244.91C488.8 246.41 490.56 247.6 492.57 248.46C494.58 249.33 496.73 249.76 499.03 249.76C500.56 249.76 502.09 249.54 503.62 249.11C504.8 248.78 505.93 248.34 506.99 247.8C507.54 247.52 507.9 246.97 507.9 246.35V241.81C507.9 240.92 507.18 240.2 506.29 240.2H499.11C498.22 240.2 497.5 239.48 497.5 238.59V231.18C497.5 230.29 498.22 229.57 499.11 229.57L499.1 229.61Z" fill="url(#paint2_linear_5_100)"/><path d="M541.51 218.6V226.16C541.51 227.05 542.23 227.77 543.12 227.77H557.26C558.15 227.77 558.87 228.49 558.87 229.38V236.87C558.87 237.76 558.15 238.48 557.26 238.48H543.12C542.23 238.48 541.51 239.2 541.51 240.09V247.65C541.51 248.54 542.23 249.26 543.12 249.26H563.68C564.57 249.26 565.29 249.98 565.29 250.87V258.28C565.29 259.17 564.57 259.89 563.68 259.89H532.5C531.61 259.89 530.89 259.17 530.89 258.28V207.99C530.89 207.1 531.61 206.38 532.5 206.38H563.68C564.57 206.38 565.29 207.1 565.29 207.99V215.4C565.29 216.29 564.57 217.01 563.68 217.01H543.12C542.23 217.01 541.51 217.73 541.51 218.62V218.6Z" fill="url(#paint3_linear_5_100)"/><path d="M577.52 205.84H579.96C580.4 205.84 580.81 206.03 581.1 206.35L606.85 234.96C607.79 236.01 609.53 235.34 609.53 233.93V207.91C609.53 207.06 610.22 206.37 611.07 206.37H618.54C619.39 206.37 620.08 207.06 620.08 207.91V258.87C620.08 259.72 619.39 260.41 618.54 260.41H616.03C615.59 260.41 615.18 260.22 614.89 259.9L589.22 231.37C588.28 230.32 586.54 230.99 586.54 232.4V258.34C586.54 259.19 585.85 259.88 585 259.88H577.53C576.68 259.88 575.99 259.19 575.99 258.34V207.38C575.99 206.53 576.68 205.84 577.53 205.84H577.52Z" fill="url(#paint4_linear_5_100)"/><path d="M668.61 217H657.01C656.16 217 655.47 217.69 655.47 218.54V258.34C655.47 259.19 654.78 259.88 653.93 259.88H646.38C645.53 259.88 644.84 259.19 644.84 258.34V218.54C644.84 217.69 644.15 217 643.3 217H631.55C630.7 217 630.01 216.31 630.01 215.46V207.91C630.01 207.06 630.7 206.37 631.55 206.37H668.6C669.45 206.37 670.14 207.06 670.14 207.91V215.46C670.14 216.31 669.45 217 668.6 217H668.61Z" fill="url(#paint5_linear_5_100)"/><path d="M693.53 260.41C691.19 260.41 688.92 260.08 686.73 259.42C684.54 258.76 682.47 257.81 680.54 256.59H680.62C679.24 255.72 678.02 254.78 676.95 253.76C676.53 253.36 676.17 253.01 675.85 252.7C675.22 252.08 675.24 251.07 675.89 250.47L681.58 245.22C682.16 244.68 683.05 244.67 683.64 245.2C683.87 245.4 684.12 245.62 684.4 245.85C685.19 246.49 686.09 247.1 687.11 247.68C688.13 248.27 689.2 248.76 690.32 249.17C691.44 249.58 692.51 249.78 693.53 249.78C694.4 249.78 695.26 249.68 696.13 249.47C697 249.27 697.78 248.95 698.5 248.51C699.21 248.08 699.8 247.5 700.26 246.79C700.72 246.08 700.95 245.18 700.95 244.11C700.95 243.7 700.81 243.26 700.53 242.77C700.25 242.29 699.77 241.76 699.08 241.2C698.39 240.64 697.44 240.04 696.21 239.4C694.99 238.76 693.46 238.09 691.62 237.37C689.48 236.56 687.49 235.68 685.66 234.73C683.83 233.79 682.23 232.68 680.88 231.4C679.53 230.13 678.48 228.67 677.75 227.04C677.01 225.41 676.64 223.52 676.64 221.38C676.64 219.19 677.05 217.14 677.86 215.23C678.67 213.32 679.83 211.66 681.34 210.26C682.84 208.86 684.65 207.76 686.77 206.97C688.88 206.18 691.21 205.79 693.76 205.79C695.14 205.79 696.6 205.97 698.15 206.33C699.7 206.69 701.22 207.15 702.7 207.71C704.18 208.27 705.57 208.92 706.87 209.66C707.59 210.07 708.25 210.48 708.83 210.9C709.56 211.42 709.71 212.43 709.15 213.12L704.41 219.07C703.93 219.68 703.06 219.83 702.4 219.42C701.79 219.04 701.18 218.68 700.56 218.33C699.69 217.87 698.7 217.44 697.58 217.03C696.46 216.62 695.31 216.42 694.14 216.42C692 216.42 690.33 216.84 689.13 217.68C687.93 218.52 687.33 219.73 687.33 221.31C687.33 222.02 687.55 222.67 687.98 223.26C688.41 223.85 689 224.38 689.74 224.86C690.48 225.35 691.33 225.79 692.3 226.2C693.27 226.61 694.29 226.99 695.36 227.35C698.42 228.52 700.99 229.71 703.08 230.9C705.17 232.1 706.85 233.37 708.12 234.72C709.39 236.07 710.3 237.52 710.83 239.08C711.37 240.64 711.63 242.33 711.63 244.16C711.63 246.4 711.17 248.52 710.25 250.5C709.33 252.49 708.07 254.21 706.47 255.66C704.87 257.11 702.95 258.26 700.74 259.1C698.52 259.94 696.12 260.36 693.52 260.36L693.53 260.41Z" fill="url(#paint6_linear_5_100)"/><path d="M333.46 59.72H314.44V87.12C314.44 105.83 321.76 118.55 333.95 124.72V60.68C333.95 60.06 333.59 59.73 333.47 59.73L333.46 59.72Z" fill="url(#paint7_linear_5_100)"/><path d="M329.85 23.35C335.39 20.56 341.55 19.08 347.68 19.08H367.07C370.44 19.08 373.43 20.79 375.22 23.41H375.68C377.47 20.8 380.46 19.08 383.83 19.08H390.91V9.12C379.42 3.29 366.43 0 352.67 0C338.91 0 325.92 3.29 314.43 9.12V31.13L322.91 26.85L329.85 23.35Z" fill="url(#paint8_linear_5_100)"/><path d="M419.37 32.58V87.12C419.37 132.09 391.78 155.12 353.54 155.12C317.04 155.12 285.97 132.96 285.97 87.12V32.58C274.78 46.92 268.11 64.96 268.11 84.55C268.11 131.25 305.97 169.11 352.67 169.11C399.37 169.11 437.23 131.25 437.23 84.55C437.23 64.95 430.56 46.92 419.37 32.58Z" fill="url(#paint9_linear_5_100)"/><path d="M375.68 55.39H375.22C374.28 56.76 373.01 57.89 371.52 58.65V125.27C384.05 119.12 390.9 105.72 390.9 87.12V59.72H383.82C380.45 59.72 377.46 58.01 375.67 55.39H375.68Z" fill="url(#paint10_linear_5_100)"/><path d="M292.15 51.15C292.17 51.31 292.2 51.48 292.24 51.64C292.58 52.92 293.65 53.99 295.23 53.99H333.46C334.75 53.99 335.94 54.41 336.94 55.13C338.59 56.33 339.68 58.37 339.68 60.68V127.04C341.82 127.7 344.06 128.21 346.41 128.54C348.76 128.88 351.21 129.04 353.76 129.04C357.03 129.04 360.11 128.73 362.99 128.14C363.95 127.94 364.88 127.71 365.8 127.45V53.99H367.08C367.95 53.99 368.75 53.72 369.42 53.25C369.64 53.09 369.85 52.92 370.04 52.72C370.46 52.28 370.78 51.75 370.99 51.16C371.16 50.69 371.26 50.19 371.26 49.66H379.64C379.64 49.96 379.67 50.25 379.73 50.53C379.9 51.38 380.3 52.13 380.87 52.72C381.06 52.92 381.27 53.09 381.49 53.25C382.16 53.72 382.96 53.99 383.83 53.99H409.02C409.89 53.99 410.69 53.72 411.36 53.25C411.58 53.09 411.79 52.92 411.98 52.72C412.55 52.13 412.95 51.38 413.12 50.53C413.18 50.25 413.21 49.96 413.21 49.66V29.15C413.21 28.55 413.09 27.98 412.88 27.47C412.56 26.69 412.03 26.03 411.36 25.57C410.69 25.1 409.89 24.83 409.02 24.83H383.83C382.96 24.83 382.16 25.1 381.49 25.57C380.82 26.04 380.29 26.7 379.97 27.47C379.76 27.99 379.64 28.56 379.64 29.15H371.26C371.26 28.55 371.14 27.98 370.93 27.47C370.61 26.69 370.08 26.03 369.41 25.57C368.74 25.11 367.94 24.83 367.07 24.83H347.68C345.05 24.83 342.43 25.14 339.87 25.75C337.31 26.36 334.82 27.28 332.43 28.48L325.49 31.98L314.43 37.56L293.65 48.04C293.31 48.25 293.03 48.5 292.81 48.77C292.59 49.05 292.42 49.35 292.31 49.67C292.14 50.15 292.09 50.66 292.15 51.15Z" fill="#222222"/><path d="M709.84 291.13H2.67993L4.48993 288.75H711.65L709.84 291.13Z" fill="url(#paint11_linear_5_100)"/><path d="M38.52 216.73H27.06C26.17 216.73 25.45 217.45 25.45 218.34V258C25.45 258.89 24.73 259.61 23.84 259.61H16.43C15.54 259.61 14.82 258.89 14.82 258V218.34C14.82 217.45 14.1 216.73 13.21 216.73H1.61C0.72 216.73 0 216.01 0 215.12V207.71C0 206.82 0.72 206.1 1.61 206.1H38.52C39.41 206.1 40.13 206.82 40.13 207.71V215.12C40.13 216.01 39.41 216.73 38.52 216.73Z" fill="#222222"/></g><defs><linearGradient id="paint0_linear_5_100" x1="347.04" y1="210.07" x2="606.57" y2="326.56" gradientUnits="userSpaceOnUse"><stop stop-color="#DCDB22"/><stop offset="0.14" stop-color="#CFD424"/><stop offset="0.4" stop-color="#AEC12B"/><stop offset="0.75" stop-color="#78A436"/><stop offset="1" stop-color="#4D8C3F"/></linearGradient><linearGradient id="paint1_linear_5_100" x1="353.83" y1="194.94" x2="613.36" y2="311.43" gradientUnits="userSpaceOnUse"><stop stop-color="#DCDB22"/><stop offset="0.14" stop-color="#CFD424"/><stop offset="0.4" stop-color="#AEC12B"/><stop offset="0.75" stop-color="#78A436"/><stop offset="1" stop-color="#4D8C3F"/></linearGradient><linearGradient id="paint2_linear_5_100" x1="363.87" y1="172.56" x2="623.4" y2="289.05" gradientUnits="userSpaceOnUse"><stop stop-color="#DCDB22"/><stop offset="0.14" stop-color="#CFD424"/><stop offset="0.4" stop-color="#AEC12B"/><stop offset="0.75" stop-color="#78A436"/><stop offset="1" stop-color="#4D8C3F"/></linearGradient><linearGradient id="paint3_linear_5_100" x1="372.14" y1="154.15" x2="631.67" y2="270.64" gradientUnits="userSpaceOnUse"><stop stop-color="#DCDB22"/><stop offset="0.14" stop-color="#CFD424"/><stop offset="0.4" stop-color="#AEC12B"/><stop offset="0.75" stop-color="#78A436"/><stop offset="1" stop-color="#4D8C3F"/></linearGradient><linearGradient id="paint4_linear_5_100" x1="380.51" y1="135.49" x2="640.04" y2="251.98" gradientUnits="userSpaceOnUse"><stop stop-color="#DCDB22"/><stop offset="0.14" stop-color="#CFD424"/><stop offset="0.4" stop-color="#AEC12B"/><stop offset="0.75" stop-color="#78A436"/><stop offset="1" stop-color="#4D8C3F"/></linearGradient><linearGradient id="paint5_linear_5_100" x1="390.49" y1="113.27" x2="650.01" y2="229.77" gradientUnits="userSpaceOnUse"><stop stop-color="#DCDB22"/><stop offset="0.14" stop-color="#CFD424"/><stop offset="0.4" stop-color="#AEC12B"/><stop offset="0.75" stop-color="#78A436"/><stop offset="1" stop-color="#4D8C3F"/></linearGradient><linearGradient id="paint6_linear_5_100" x1="396.52" y1="99.82" x2="656.05" y2="216.31" gradientUnits="userSpaceOnUse"><stop stop-color="#DCDB22"/><stop offset="0.14" stop-color="#CFD424"/><stop offset="0.4" stop-color="#AEC12B"/><stop offset="0.75" stop-color="#78A436"/><stop offset="1" stop-color="#4D8C3F"/></linearGradient><linearGradient id="paint7_linear_5_100" x1="258.93" y1="92.22" x2="436.38" y2="92.22" gradientUnits="userSpaceOnUse"><stop stop-color="#DCDB22"/><stop offset="0.14" stop-color="#CFD424"/><stop offset="0.4" stop-color="#AEC12B"/><stop offset="0.75" stop-color="#78A436"/><stop offset="1" stop-color="#4D8C3F"/></linearGradient><linearGradient id="paint8_linear_5_100" x1="258.93" y1="15.56" x2="436.38" y2="15.56" gradientUnits="userSpaceOnUse"><stop stop-color="#DCDB22"/><stop offset="0.14" stop-color="#CFD424"/><stop offset="0.4" stop-color="#AEC12B"/><stop offset="0.75" stop-color="#78A436"/><stop offset="1" stop-color="#4D8C3F"/></linearGradient><linearGradient id="paint9_linear_5_100" x1="258.93" y1="100.85" x2="436.38" y2="100.85" gradientUnits="userSpaceOnUse"><stop stop-color="#DCDB22"/><stop offset="0.14" stop-color="#CFD424"/><stop offset="0.4" stop-color="#AEC12B"/><stop offset="0.75" stop-color="#78A436"/><stop offset="1" stop-color="#4D8C3F"/></linearGradient><linearGradient id="paint10_linear_5_100" x1="258.93" y1="90.33" x2="436.38" y2="90.33" gradientUnits="userSpaceOnUse"><stop stop-color="#DCDB22"/><stop offset="0.14" stop-color="#CFD424"/><stop offset="0.4" stop-color="#AEC12B"/><stop offset="0.75" stop-color="#78A436"/><stop offset="1" stop-color="#4D8C3F"/></linearGradient><linearGradient id="paint11_linear_5_100" x1="2.67993" y1="289.94" x2="684.94" y2="289.94" gradientUnits="userSpaceOnUse"><stop stop-color="#DCDB22"/><stop offset="0.14" stop-color="#CFD424"/><stop offset="0.4" stop-color="#AEC12B"/><stop offset="0.75" stop-color="#78A436"/><stop offset="1" stop-color="#4D8C3F"/></linearGradient><clipPath id="clip0_5_100"><rect width="711.65" height="291.13" fill="white"/></clipPath></defs></svg>