<svg width="80" height="80" viewBox="0 0 80 80" fill="none" xmlns="http://www.w3.org/2000/svg"><path d="M16.2122 31.5398V24.0731L41.5275 12L66.8428 24.0731V58.2247H52.8728" stroke="white" stroke-width="3" stroke-linecap="round" stroke-linejoin="round"/><path d="M18.6926 56.7006C17.5371 55.5451 15.6645 55.5451 14.5091 56.7006L13 58.2096L21.7904 67L23.2994 65.491C24.4549 64.3355 24.4549 62.4629 23.2994 61.3074L18.6926 56.7006Z" fill="white"/><path d="M48.0969 30.21L18.9716 39.0651C16.8799 39.7026 16.2225 42.3372 17.7664 43.8861L23.5337 49.6534L27 46.187C27.9861 45.2059 29.291 44.663 30.6805 44.663C32.0701 44.663 33.3799 45.2059 34.366 46.187C36.398 48.219 36.398 51.521 34.366 53.553L30.8997 57.0194L38.0366 64.1563C39.5805 65.7002 42.2201 65.0428 42.8576 62.951L51.7127 33.8207C52.3851 31.6045 50.3132 29.5326 48.0969 30.205V30.21Z" fill="white"/><path d="M32.583 47.9651C32.055 47.4372 31.3678 47.1782 30.6755 47.1782C29.9832 47.1782 29.2959 47.4422 28.768 47.9651L25.3016 51.4315L21.3821 55.351L25.1921 59.161L29.1116 55.2415L32.578 51.7751C33.6288 50.7243 33.6288 49.016 32.578 47.9651H32.583Z" fill="white"/></svg>