<svg width="80" height="80" viewBox="0 0 105 90" fill="none" xmlns="http://www.w3.org/2000/svg"><mask id="mask0_52_2097" style="mask-type:alpha" maskUnits="userSpaceOnUse" x="0" y="0" width="105" height="90"><rect x="0.5" y="0.5" width="104" height="89" fill="#D9D9D9" stroke="black"/></mask><g mask="url(#mask0_52_2097)"><path opacity="0.3" d="M74 15.5C81.42 22.92 165.5 123.5 165.5 123.5L122 169.5L32 64L40.5 51L32 42.5L33.5 36L28.5 31L30.5 27.5L41.5 11L56.5 22.5L62.5 9.5L73 16L74 15.5Z" fill="url(#paint0_linear_52_2097)"/></g><path d="M75.5215 19.9131C75.5215 19.8513 75.5215 19.7856 75.5215 19.7239C75.5138 19.4961 75.4983 19.2683 75.4752 19.0443C75.4713 19.0019 75.4636 18.9594 75.4597 18.9169C75.4404 18.7354 75.4134 18.5501 75.3864 18.3686C75.3748 18.2914 75.3593 18.2181 75.3439 18.1408C75.3169 17.9903 75.286 17.8397 75.2512 17.6891C75.2319 17.608 75.2165 17.5308 75.1972 17.4497C75.1586 17.2991 75.1199 17.1447 75.0736 16.9941C75.0543 16.9246 75.035 16.8551 75.0118 16.7856C74.9462 16.5733 74.8728 16.3609 74.7956 16.1486V16.1408C74.4636 15.2605 73.2396 15.1872 72.7879 16.0134L69.7454 21.5617C68.8497 23.1949 66.8033 23.7934 65.1701 22.8976L61.2859 20.7663C59.6527 19.8706 59.0543 17.8242 59.95 16.191L62.9925 10.6427C63.4442 9.82035 62.7377 8.85896 61.8265 9.01726C61.811 9.01726 61.7956 9.01726 61.7801 9.02498C61.7685 9.02498 61.757 9.0327 61.7454 9.0327C61.6913 9.04429 61.6373 9.05973 61.5832 9.07131C61.4056 9.11378 61.2319 9.15626 61.0543 9.20645C60.9732 9.22961 60.896 9.25278 60.8187 9.27595C60.6682 9.32228 60.5176 9.37247 60.367 9.42267C60.2859 9.44969 60.2048 9.48058 60.1276 9.50761C59.9732 9.56552 59.8226 9.6273 59.672 9.68908C59.6025 9.71996 59.533 9.74699 59.4635 9.77788C59.2473 9.8744 59.0349 9.97479 58.8264 10.0829H58.8226C58.6141 10.1949 58.4056 10.3146 58.2048 10.4381C58.1392 10.4767 58.0774 10.5192 58.0156 10.5578C57.8766 10.6466 57.7376 10.7354 57.6025 10.8319C57.533 10.8821 57.4635 10.9323 57.3902 10.9825C57.2627 11.0752 57.1353 11.1756 57.0118 11.2721C56.9461 11.3261 56.8805 11.3763 56.8149 11.4304C56.6759 11.5462 56.5369 11.6698 56.4017 11.7933C56.3593 11.8319 56.3129 11.8706 56.2705 11.913C56.0967 12.079 55.9268 12.2528 55.7608 12.4304C55.7222 12.4729 55.6836 12.5192 55.645 12.5617C55.5214 12.7007 55.3979 12.8435 55.2782 12.9902C55.2241 13.0559 55.1739 13.1254 55.1199 13.1949C55.0195 13.3262 54.9191 13.4574 54.8264 13.5964C54.7762 13.6698 54.7222 13.7431 54.672 13.8204C54.5755 13.9632 54.4828 14.1138 54.394 14.2605C54.3515 14.33 54.3091 14.3957 54.2704 14.4652C54.143 14.6852 54.0195 14.9092 53.9075 15.1408C52.0967 18.8204 52.4828 23.1177 54.6141 26.3996L42.5368 48.4383C38.4634 48.3919 34.502 50.5348 32.4055 54.3533C32.2858 54.5695 32.1777 54.7858 32.0773 55.0058C32.0464 55.0753 32.0155 55.1448 31.9847 55.2143C31.9152 55.3649 31.8534 55.5194 31.7916 55.6738C31.7607 55.7549 31.7298 55.8321 31.7028 55.9132C31.6487 56.0638 31.5947 56.2143 31.5484 56.3649C31.5252 56.4421 31.4982 56.5155 31.475 56.5927C31.4209 56.7742 31.3707 56.9557 31.3283 57.141C31.3167 57.1835 31.3051 57.2298 31.2935 57.2723C31.2395 57.5001 31.197 57.7279 31.1584 57.9557C31.1468 58.0174 31.1391 58.0792 31.1314 58.141C31.1082 58.307 31.085 58.4769 31.0657 58.6429C31.058 58.724 31.0503 58.8051 31.0426 58.8862C31.031 59.0406 31.0194 59.1912 31.0155 59.3456C31.0155 59.4267 31.0078 59.5078 31.0078 59.5889C31.0078 59.7549 31.0078 59.9209 31.0078 60.0869C31.0078 60.1487 31.0078 60.2144 31.0078 60.2761C31.0155 60.5039 31.031 60.7317 31.0541 60.9557C31.058 60.9981 31.0657 61.0406 31.0696 61.0831C31.0889 61.2646 31.1159 61.4499 31.1429 61.6314C31.1545 61.7086 31.17 61.7819 31.1854 61.8591C31.2124 62.0097 31.2433 62.1603 31.2781 62.3109C31.2974 62.392 31.3128 62.4692 31.3321 62.5503C31.3707 62.7009 31.4094 62.8553 31.4557 63.0059C31.475 63.0754 31.4943 63.1449 31.5175 63.2144C31.5831 63.4267 31.6565 63.6391 31.7337 63.8514V63.8592C32.0657 64.7395 33.2897 64.8128 33.7414 63.9866L36.7839 58.4383C37.6797 56.8051 39.726 56.2066 41.3592 57.1024L45.2434 59.2337C46.8766 60.1294 47.4751 62.1758 46.5793 63.809L43.5368 69.3572C43.0851 70.1796 43.7916 71.141 44.7028 70.9827C44.7183 70.9827 44.7337 70.9827 44.7492 70.975C44.7608 70.975 44.7723 70.9673 44.7839 70.9673C44.838 70.9557 44.892 70.9403 44.9461 70.9287C45.1237 70.8862 45.2974 70.8437 45.475 70.7935C45.5561 70.7704 45.6333 70.7472 45.7106 70.724C45.8611 70.6777 46.0117 70.6275 46.1623 70.5773C46.2434 70.5503 46.3245 70.5194 46.4017 70.4924C46.5561 70.4345 46.7067 70.3727 46.8573 70.3109C46.9268 70.28 46.9963 70.253 47.0658 70.2221C47.282 70.1256 47.4944 70.0252 47.7029 69.9171H47.7067C47.9152 69.8051 48.1237 69.6854 48.3245 69.5619C48.3901 69.5233 48.4519 69.4808 48.5137 69.4422C48.6527 69.3534 48.7917 69.2646 48.9268 69.1681C48.9963 69.1179 49.0658 69.0677 49.1392 69.0175C49.2666 68.9248 49.394 68.8244 49.5175 68.7279C49.5832 68.6738 49.6488 68.6237 49.7144 68.5696C49.8534 68.4538 49.9924 68.3302 50.1276 68.2067C50.17 68.1681 50.2164 68.1294 50.2588 68.087C50.4326 67.921 50.6025 67.7472 50.7685 67.5696C50.8071 67.5271 50.8457 67.4808 50.8843 67.4383C51.0079 67.2993 51.1314 67.1565 51.2511 67.0097C51.3052 66.9441 51.3554 66.8746 51.4094 66.8051C51.5098 66.6738 51.6102 66.5426 51.7029 66.4036C51.7531 66.3302 51.8071 66.2569 51.8573 66.1796C51.9538 66.0368 52.0465 65.8862 52.1353 65.7395C52.1778 65.67 52.2202 65.6043 52.2589 65.5348C52.3863 65.3148 52.5098 65.0908 52.6218 64.8592C54.4326 61.1796 54.0465 56.8823 51.9152 53.6004L63.9925 31.5617C68.0659 31.6081 72.0273 29.4652 74.1238 25.6467C74.2435 25.4304 74.3516 25.2142 74.452 24.9942C74.4829 24.9247 74.5138 24.8552 74.5447 24.7857C74.6142 24.6351 74.6759 24.4806 74.7377 24.3262C74.7686 24.2451 74.7995 24.1679 74.8265 24.0868C74.8806 23.9362 74.9346 23.7857 74.9809 23.6351C75.0041 23.5579 75.0311 23.4845 75.0543 23.4073C75.1084 23.2258 75.1586 23.0443 75.201 22.859C75.2126 22.8165 75.2242 22.7702 75.2358 22.7277C75.2898 22.4999 75.3323 22.2721 75.3709 22.0443C75.3825 21.9826 75.3902 21.9208 75.3979 21.859C75.4211 21.693 75.4443 21.5231 75.4636 21.3571C75.4713 21.276 75.479 21.1949 75.4867 21.1138C75.4983 20.9594 75.5099 20.8088 75.5138 20.6544C75.5138 20.5733 75.5215 20.4922 75.5215 20.4111C75.5215 20.2451 75.5215 20.0791 75.5215 19.9131Z" fill="#FCFCFC"/><path d="M45.5668 25.2373C45.8401 24.7567 45.8268 24.1647 45.5323 23.6968C45.2377 23.2289 44.7097 22.961 44.1582 22.9996L40.6762 23.243L41.994 13.9528C42.0951 13.2397 41.6751 12.5554 40.9935 12.3226C40.3119 12.0899 39.561 12.3745 39.205 13.0006L29.6961 29.7199C29.4228 30.2005 29.436 30.7926 29.7305 31.2605C30.025 31.7284 30.5531 31.9964 31.1046 31.9578L34.5872 31.7143L33.2721 41.005C33.1712 41.7181 33.5913 42.4023 34.273 42.6349C34.9546 42.8674 35.7053 42.5827 36.0613 41.9566L45.5668 25.2373Z" stroke="#FCFCFC" stroke-width="3" stroke-linejoin="round"/><path d="M68 45L69.2231 44.1317L68.0002 42.4092L66.7771 44.1314L68 45ZM68 45C69.2231 44.1317 69.2232 44.1318 69.2233 44.132L69.2237 44.1324L69.2247 44.1339L69.228 44.1386L69.2401 44.1557L69.2847 44.2191C69.3232 44.2741 69.3789 44.354 69.4494 44.4562C69.5903 44.6603 69.7904 44.9536 70.0301 45.3137C70.5085 46.0328 71.1487 47.025 71.7912 48.1119C72.4308 49.1938 73.0882 50.3955 73.5902 51.5289C74.0669 52.605 74.5 53.8258 74.5 54.873C74.5 58.4954 71.627 61.5 68 61.5C64.3735 61.5 61.5 58.4987 61.5 54.873C61.5 53.8253 61.933 52.6042 62.4097 51.5278C62.9118 50.3942 63.5692 49.1925 64.2088 48.1107C64.8513 47.024 65.4916 46.032 65.97 45.3132C66.2097 44.9531 66.4099 44.6599 66.5508 44.4558C66.6212 44.3538 66.677 44.2738 66.7155 44.2189L66.7601 44.1555L66.7721 44.1384L66.7755 44.1336L66.7765 44.1322L66.7768 44.1317C66.777 44.1316 66.7771 44.1314 68 45Z" stroke="#FCFCFC" stroke-width="3"/><defs><linearGradient id="paint0_linear_52_2097" x1="37.9483" y1="19.4023" x2="87.0582" y2="59.8708" gradientUnits="userSpaceOnUse"><stop offset="0.461225" stop-color="#669A3B"/><stop offset="1" stop-color="#669A3B" stop-opacity="0"/></linearGradient></defs></svg>