<svg width="20" height="30" viewBox="0 0 20 30" fill="none" xmlns="http://www.w3.org/2000/svg"><path d="M13.269 28.8101C12.4334 28.5142 11.2124 27.735 9.47933 25.7552C7.34846 23.3152 5.80476 21.2311 4.10855 17.6719C2.4712 14.2242 1.82972 12.1722 1.2247 8.40165L1.22459 8.40097C0.551176 4.22261 1.56712 2.8053 1.93856 2.43082L1.93856 2.43082L1.94051 2.42885C2.55749 1.80336 3.23266 1.5199 4.22793 1.26827C4.76525 1.1366 5.31499 1.05717 5.87314 1.02629C5.96935 1.02479 6.05481 1.01681 6.11174 1.01065C6.25522 0.99805 6.33929 0.995717 6.41581 1.00835C6.47644 1.01835 6.53444 1.03847 6.60239 1.09479C6.71977 1.19586 6.85868 1.38372 7.17113 2.0365L7.17112 2.03651L7.17278 2.03994C7.44679 2.60686 7.73163 3.51917 7.9667 4.48597C8.19907 5.44161 8.36266 6.36597 8.41775 6.92718C8.50159 7.83172 8.51406 8.13632 8.41169 8.42003L8.41167 8.42003L8.40965 8.42575C8.30917 8.70959 8.09251 8.9161 7.51836 9.3045L7.51835 9.30449L7.51398 9.30748C7.45427 9.34833 7.40956 9.3774 7.358 9.41093C7.31846 9.43663 7.2749 9.46496 7.21745 9.50323C6.93801 9.68616 6.65423 9.87392 6.44885 10.0805C6.16728 10.3637 6.03188 10.6728 5.98155 11.0188L5.98026 11.0277L5.97914 11.0365C5.91729 11.5225 6.00856 12.3182 6.19963 13.1692C6.39993 14.0612 6.73806 15.1381 7.25301 16.2215C7.76836 17.3059 8.38262 18.2314 8.94257 18.9343C9.47972 19.6086 10.0297 20.157 10.4417 20.4129L10.4417 20.4129L10.4472 20.4163C10.756 20.6054 11.0892 20.6967 11.4933 20.656C11.7892 20.6261 12.1229 20.5213 12.4509 20.417C12.4512 20.417 12.4515 20.4169 12.4518 20.4168L12.6078 20.3675L12.7591 20.3197C12.7602 20.3194 12.7613 20.319 12.7624 20.3187C13.5115 20.0879 13.7779 20.0638 14.0408 20.1571L14.0411 20.1572C14.2997 20.2487 14.4998 20.4291 15.1668 21.1322L15.1687 21.1342C15.5415 21.5249 16.1608 22.2418 16.7635 23.026C17.3764 23.8236 17.9171 24.6205 18.1812 25.1858C18.501 25.872 18.5563 26.0784 18.5583 26.2227L18.5584 26.2275C18.5601 26.3136 18.5402 26.3681 18.5095 26.421C18.4693 26.4904 18.4148 26.5522 18.305 26.6679C18.268 26.7049 18.2162 26.757 18.1574 26.8228C17.7805 27.2338 17.3636 27.6108 16.9116 27.9487C16.095 28.556 15.4437 28.8987 14.5608 28.9845L14.5608 28.9844L14.5542 28.9851C14.2127 29.0206 13.8667 28.9925 13.5324 28.9034L13.269 28.8101ZM14.375 19.2146C14.9036 19.4018 15.2735 19.7916 15.882 20.4331L15.8923 20.4439C16.6953 21.2856 18.4618 23.4232 19.0875 24.7633C19.3921 25.4167 19.5527 25.8155 19.5583 26.2086L14.375 19.2146Z" stroke="#A2C118" stroke-width="2" stroke-miterlimit="10"/></svg>