<svg width="25" height="20" viewBox="0 0 25 20" fill="none" xmlns="http://www.w3.org/2000/svg"><path d="M15.0084 8.99142e-07L25 1.77263e-06L25 10.0227C25 15.9079 21.6684 19.2348 15.0084 20L15.0084 14.987C18.2296 14.8768 19.9019 13.2231 20.0286 10.0227L15.0084 10.0227L15.0084 8.99142e-07V8.99142e-07ZM4.48948e-07 -4.12938e-07L9.99156 4.60551e-07L9.99156 10.0227C9.99156 15.9079 6.65996 19.2348 -1.29951e-06 20L-8.6126e-07 14.987C3.2212 14.8768 4.89349 13.2231 5.02013 10.0227L-4.27264e-07 10.0227L4.48948e-07 -4.12938e-07V-4.12938e-07Z" fill="#A2C118"/></svg>