<svg width="55" height="46" viewBox="0 0 55 46" fill="none" xmlns="http://www.w3.org/2000/svg"><g filter="url(#filter0_d_71_1951)"><path d="M32.2159 2.17254e-06L51 3.8147e-06L51 19.0431C51 30.225 44.7366 36.546 32.2159 38L32.2159 28.4754C38.2717 28.2659 41.4156 25.1239 41.6537 19.0431L32.2159 19.0431L32.2159 2.17254e-06ZM4 -2.94174e-07L22.7841 1.34799e-06L22.7841 19.0431C22.7841 30.225 16.5207 36.546 3.99999 38L3.99999 28.4754C10.0558 28.2659 13.1998 25.1239 13.4378 19.0431L3.99999 19.0431L4 -2.94174e-07Z" fill="#FCFCFC"/></g><defs><filter id="filter0_d_71_1951" x="0" y="0" width="55" height="46" filterUnits="userSpaceOnUse" color-interpolation-filters="sRGB"><feFlood flood-opacity="0" result="BackgroundImageFix"/><feColorMatrix in="SourceAlpha" type="matrix" values="0 0 0 0 0 0 0 0 0 0 0 0 0 0 0 0 0 0 127 0" result="hardAlpha"/><feOffset dy="4"/><feGaussianBlur stdDeviation="2"/><feComposite in2="hardAlpha" operator="out"/><feColorMatrix type="matrix" values="0 0 0 0 0.133333 0 0 0 0 0.133333 0 0 0 0 0.133333 0 0 0 0.3 0"/><feBlend mode="normal" in2="BackgroundImageFix" result="effect1_dropShadow_71_1951"/><feBlend mode="normal" in="SourceGraphic" in2="effect1_dropShadow_71_1951" result="shape"/></filter></defs></svg>