<svg width="80" height="80" viewBox="0 0 80 80" fill="none" xmlns="http://www.w3.org/2000/svg"><path fill-rule="evenodd" clip-rule="evenodd" d="M35.7852 58.1168C34.8793 55.9077 34.0189 53.3215 33.2471 50.7506C32.5083 48.3061 31.8149 45.7251 31.0988 42.8707L31.0127 42.5215C27.2145 44.0018 21.9208 44.4548 20.028 48.3011C18.0795 52.2461 16.3183 60.9914 16.002 67.9907C15.9767 68.5322 16.1943 69.013 16.5688 69.4052C16.9433 69.8 17.4089 69.9999 17.9505 69.9999H62.5981C63.1396 69.9999 63.6077 69.8 63.9797 69.4052C64.3542 69.0105 64.6073 68.5322 64.582 67.9907C64.2657 60.9889 62.469 52.2436 60.5206 48.3011C58.6303 44.4548 53.334 44.0018 49.5358 42.5215L49.4244 42.9668V42.982L49.4143 43.0099L49.308 43.4325V43.44C48.0884 48.2429 46.1956 55.0751 44.1332 59.5718C43.0375 62.2313 41.7799 64.9516 40.2743 67.9401C38.4523 64.405 37.0125 61.247 35.7852 58.1193V58.1168Z" stroke="white" stroke-width="3" stroke-miterlimit="10"/><path d="M40.5 37C47.4036 37 53 30.9558 53 23.5C53 16.0442 47.4036 10 40.5 10C33.5964 10 28 16.0442 28 23.5C28 30.9558 33.5964 37 40.5 37Z" stroke="white" stroke-width="3" stroke-miterlimit="10"/><path d="M40.3022 42.5215L37.0683 44.6496L38.0349 48.506L36.4053 58.9392C37.5288 61.8771 38.794 64.8251 40.2769 67.9527C41.7572 64.7922 43.0326 61.8062 44.1738 58.8253L42.5619 48.506L43.5286 44.6496L40.2971 42.5215H40.3022Z" fill="white"/></svg>