<svg width="80" height="80" viewBox="0 0 80 80" fill="none" xmlns="http://www.w3.org/2000/svg"><path d="M34.7502 28.5758L57.7914 41.5877C57.7914 41.5877 58.0541 37.134 55.5138 35.824C52.9735 34.5141 54.5785 28.9477 48.3308 28.7505C42.8121 28.5758 43.1625 24.0347 34.7531 28.5758H34.7502Z" stroke="#FCFCFC" stroke-width="3" stroke-miterlimit="10"/><path d="M32.8933 26.7304C33.0544 26.1895 33.1448 25.6204 33.1448 25.0289C33.1448 23.3696 32.461 21.8682 31.3646 20.7864L33.3681 12.1269L33.8597 10L27.2758 12.1325L26.705 14.6058L25.6284 19.2652C23.0654 19.9413 21.1665 22.2682 21.1665 25.0317C21.1665 28.0177 23.3819 30.4939 26.2585 30.9277L28.31 40.9874C29.8189 48.3849 36.8324 52.3485 43.9731 49.8413L62.363 43.3903L32.8933 26.7304ZM30.0959 25.15C30.0337 26.7163 28.7395 27.9699 27.1543 27.9699C26.5637 27.9699 26.0155 27.7952 25.5549 27.4966C24.7439 26.9726 24.207 26.0627 24.207 25.0317C24.207 24.4204 24.3963 23.8542 24.7156 23.3837C24.9332 23.0626 25.2158 22.7893 25.5408 22.5752C26.0042 22.271 26.558 22.0935 27.1543 22.0935C28.7791 22.0935 30.1015 23.4119 30.1015 25.0317C30.1015 25.0711 30.0959 25.1106 30.0959 25.15V25.15Z" fill="#FCFCFC"/><path d="M39.6838 60.8416C31.3055 60.8416 24.3909 56.3738 23.3425 50.5933H12C16.2358 61.9262 27.1884 69.9998 40.0314 69.9998C52.8744 69.9998 63.8269 61.9262 68.0627 50.5933H56.0194C54.9739 56.3738 48.0593 60.8416 39.6782 60.8416H39.6838Z" stroke="#FCFCFC" stroke-width="3" stroke-linejoin="round"/></svg>